<svg id="Layer_1" xmlns="http://www.w3.org/2000/svg" width="74" height="64" viewBox="0 0 74 64"><style>.st0{fill:#fff}.st1{fill:#5a5a96}.st2{fill:#b42846}.st3{fill:#008cc3}.st4{fill:#e16428}.st5{fill:#00a846}.st6{fill:#f0b428}</style><path class="st0" d="M37 41c.3-.5.8-1.1 1.4-1.3 1-.4 2.3-.3 3.1.4.8.7 1.2 1.6 1 2.7.2 0 .4-.2.6-.2 1.2-.3 2.4 0 3.2 1.1.6.7.7 1.9.4 2.7-.2.4-.5.8-.8 1.2 1.1.1 2.2.9 2.5 2 .4 1.1 0 2.2-.7 3-.6.6-1.4.8-2.4.8H28.8c-1.4 0-2.4-.6-3-1.8-.4-1-.2-2.4.6-3.1.5-.5 1.2-.8 1.9-.9-.8-.7-1.2-1.8-1-2.8.2-.9.9-1.8 1.8-2.1.8-.3 1.8-.2 2.5.2-.2-1.2.3-2.3 1.3-2.9.9-.6 2.3-.6 3.2.1.4.1.7.5.9.9"/><path class="st1" d="M41.7 41.4c.4.7.1 1.7-.2 2.3l-2.9 6.4-1-6.5c-.1-.6.6-.9 1-1.2 0-.1-.1-.1-.2-.1h-1c0-.8.4-1.6 1.2-2 .8-.4 1.9-.3 2.5.2.2.3.5.6.6.9"/><path class="st2" d="M36.4 41.2c.2.4.4.9.3 1.5l-1.2 7.5-.3-.6-2.9-6.5c-.3-.8 0-1.7.6-2.3.6-.6 1.6-.8 2.4-.5.5.2.9.5 1.1.9"/><path class="st3" d="M45.9 44.4c.4.7.3 1.7-.1 2.3-.3.4-.7.7-1.1.9l-6.1 4.2.1-.2 3.2-7.2c.5-.9 1.4-1.3 2.4-1.2.6.1 1.3.5 1.6 1.2"/><path class="st4" d="M32.2 44.3l3.3 7.4h-.1l-6.7-4.6c-.7-.6-1-1.4-.7-2.3.2-.7.7-1.3 1.4-1.5 1-.4 2.2 0 2.8 1"/><path class="st5" d="M47.7 49.6c.3.7.2 1.7-.3 2.3-.5.6-1.1.9-1.9.9h-7.2l6-4.2c.6-.4 1.5-.4 2.1-.1.6.2 1.1.6 1.3 1.1"/><path class="st6" d="M26.4 49.6c-.3.7-.2 1.7.3 2.3.5.6 1.1.9 1.9.9h7.2l-6-4.2c-.6-.4-1.5-.4-2.1-.1-.6.2-1.1.6-1.3 1.1"/><path class="st3" d="M37 64L4.3 47.6c-2.7-1.4-4.3-4-4.3-7.1V11.4c0-4.3 1.6-6.3 6.2-7.8C6.6 3.4 16.8 0 37.1 0 57.2 0 67.5 3.4 68 3.6c4.5 1.5 6.2 3.5 6.2 7.8v29.1c0 3.1-1.6 5.7-4.3 7.1L37 64zm.1-62.1C17.2 1.9 6.9 5.3 6.8 5.4 3 6.6 1.9 8 1.9 11.4v29.1c0 2.3 1.2 4.4 3.3 5.4l31.8 16 31.9-16c2.1-1.1 3.3-3 3.3-5.4V11.4c0-3.5-1-4.7-4.8-6-.2-.1-10.5-3.5-30.3-3.5z"/><path class="st0" d="M28.6 17.9H35V9.5H13.5c-3.8 0-6.9 2.3-7.5 6-.1.4-.1.8-.1 1.3V20c.4 3.9 3.5 6.2 7.1 6.4h14.7c.4 0 .7.3.7.7v2.6c0 .4-.3.7-.7.7H12.3v-1.9H5.8v8.4h21.5c4.2 0 7.6-2.8 7.6-7.3v-2.3c0-.4 0-.9-.1-1.3-.6-3.7-3.7-6-7.3-6H13.2c-.4 0-.7-.3-.7-.7v-2.7c0-.4.3-.7.7-.7h15.4v2zM39 28.7V16.8zm0 0v.9-.9zm22.8 1.8H46.4c-.4 0-.7-.3-.7-.7v-2.6c0-.4.3-.7.7-.7h14.7c3.7-.2 6.7-2.6 7.1-6.4v-3.2c0-.4 0-.9-.1-1.3-.6-3.8-3.8-6-7.5-6H46.7c-4.2 0-7.6 2.8-7.6 7.3v12.8c0 4.5 3.5 7.3 7.6 7.3h21.5v-8.4h-6.4v1.9zM46.2 20c-.4 0-.7-.3-.7-.7v-2.7c0-.4.3-.7.7-.7h14.7c.3 0 .5.2.6.4.1.1.1.2.1.3v2.7c0 .4-.3.7-.7.7H46.2z"/></svg>