<svg id="Layer_1" xmlns="http://www.w3.org/2000/svg" width="379" height="64" viewBox="0 0 379 64"><style>.st0{fill:#fff}.st1{fill:#5a5a96}.st2{fill:#b42846}.st3{fill:#008cc3}.st4{fill:#e16428}.st5{fill:#00a846}.st6{fill:#f0b428}</style><path class="st0" d="M191.1 41c.3-.5.8-1.1 1.4-1.3 1-.4 2.3-.3 3.1.4.8.7 1.2 1.6 1 2.7.2 0 .4-.2.6-.2 1.2-.3 2.4 0 3.2 1.1.6.7.7 1.9.4 2.7-.2.4-.5.8-.8 1.2 1.1.1 2.2.9 2.5 2 .4 1.1 0 2.2-.7 3-.6.6-1.4.8-2.4.8h-16.5c-1.4 0-2.4-.6-3-1.8-.4-1-.2-2.4.6-3.1.5-.5 1.2-.8 1.9-.9-.8-.7-1.2-1.8-1-2.8.2-.9.9-1.8 1.8-2.1.8-.3 1.8-.2 2.5.2-.2-1.2.3-2.3 1.3-2.9.9-.6 2.3-.6 3.2.1.4.1.7.5.9.9"/><path class="st1" d="M195.8 41.4c.4.7.1 1.7-.2 2.3l-2.9 6.4-1-6.5c-.1-.6.6-.9 1-1.2 0-.1-.1-.1-.2-.1h-1c0-.8.4-1.6 1.2-2 .8-.4 1.9-.3 2.5.2l.6.9"/><path class="st2" d="M190.5 41.2c.2.4.4.9.3 1.5l-1.2 7.5-.3-.6-2.9-6.5c-.3-.8 0-1.7.6-2.3.6-.6 1.6-.8 2.4-.5.5.2.9.5 1.1.9"/><path class="st3" d="M200 44.4c.4.7.3 1.7-.1 2.3-.3.4-.7.7-1.1.9l-6.1 4.2.1-.2 3.2-7.2c.5-.9 1.4-1.3 2.4-1.2.6.1 1.3.5 1.6 1.2"/><path class="st4" d="M186.3 44.3l3.3 7.4h-.1l-6.7-4.6c-.7-.6-1-1.4-.7-2.3.2-.7.7-1.3 1.4-1.5 1-.4 2.2 0 2.8 1"/><path class="st5" d="M201.8 49.6c.3.7.2 1.7-.3 2.3-.5.6-1.1.9-1.9.9h-7.2l6-4.2c.6-.4 1.5-.4 2.1-.1.6.2 1 .6 1.3 1.1"/><path class="st6" d="M180.5 49.6c-.3.7-.2 1.7.3 2.3.5.6 1.1.9 1.9.9h7.2l-6-4.2c-.6-.4-1.5-.4-2.1-.1-.6.2-1.1.6-1.3 1.1"/><path class="st3" d="M191.1 64l-32.7-16.4c-2.7-1.4-4.3-4.1-4.3-7.1V11.4c0-4.3 1.6-6.3 6.2-7.8.4-.1 10.6-3.6 30.8-3.6 20.1 0 30.4 3.4 30.9 3.6 4.5 1.5 6.2 3.5 6.2 7.8v29.1c0 3.1-1.6 5.7-4.3 7.1L191.1 64zm0-62.1c-19.8 0-30.1 3.4-30.2 3.5-3.8 1.2-4.9 2.6-4.9 6v29.1c0 2.3 1.2 4.4 3.3 5.4l31.9 15.9 31.9-16c2.1-1.1 3.3-3 3.3-5.4v-29c0-3.5-1-4.7-4.8-6-.3-.1-10.6-3.5-30.5-3.5z"/><path class="st0" d="M349.8 28.7V16.8zm0 0v.9-.9zm22.8 1.8h-15.4c-.4 0-.7-.3-.7-.7v-2.6c0-.4.3-.7.7-.7h14.7c3.7-.2 6.7-2.6 7.1-6.4v-3.2c0-.4 0-.9-.1-1.3-.6-3.8-3.8-6-7.5-6h-13.9c-4.2 0-7.6 2.8-7.6 7.3v12.8c0 4.5 3.5 7.3 7.6 7.3H379v-8.4h-6.4v1.9zM356.9 20c-.4 0-.7-.3-.7-.7v-2.7c0-.4.3-.7.7-.7h14.7c.3 0 .5.2.6.4.1.1.1.2.1.3v2.7c0 .4-.3.7-.7.7h-14.7zM296.6 9.5h-20.4c-2.3 0-4.3.7-5.8 1.9-1.9 1.6-3 4-3 6.9v9.8c0 5.2 3.6 8.8 8.8 8.8H290v2.3c0 .7-.6 1.3-1.3 1.3h-20.2v6.4H289c4.2 0 7.6-2.8 7.6-7.3V9.5zM290 29.9c0 .4-.3.7-.7.7h-14.6c-.4 0-.7-.3-.7-.7V16.8c0-.4.3-.7.7-.7h14.6c.4 0 .7.3.7.7v13.1zM308.9.2v6.9h-6.6V.2h6.6zm-6.6 9.3h6.6v27.4h-6.6V9.5zm35.2 27.4V17.3c0-.7-.6-1.3-1.3-1.3h-15v21h-6.6V9.5h21.9c4.2 0 7.6 2.8 7.6 7.3v20.1h-6.6zm-83.7-21zm.3-6.4h-21.9v27.4h6.6V16.6c0-.4.3-.7.7-.7h14.9c.4 0 .7.3.7.7v20.3h6.6V16.8c0-4.5-3.4-7.3-7.6-7.3zm-199 0H34.7v37.4h6.6v-10h13.8c5.2 0 8.8-3.6 8.8-8.8v-9.8c0-5.2-3.6-8.8-8.8-8.8zm2.2 20.4c0 .4-.3.7-.7.7H42c-.4 0-.7-.3-.7-.7V16.8c0-.4.3-.7.7-.7h14.6c.4 0 .7.3.7.7v13.1zM89.8 9.5H78.1c-5.2 0-8.8 3.6-8.8 8.8v9.8c0 5.2 3.6 8.8 8.8 8.8h11.6c5.2 0 8.8-3.6 8.8-8.8v-9.8c.1-5.2-3.5-8.8-8.7-8.8zm2.1 20.3c0 .4-.3.7-.7.7H76.7c-.4 0-.7-.3-.7-.7V16.6c0-.4.3-.7.7-.7h14.6c.4 0 .7.3.7.7v13.2zm39.5-13.9V9.5h4.3V3.7h6.6v5.8h7.8v6.4h-7.8v13.2c0 .7.6 1.3 1.3 1.3h6.5v6.4h-6.8c-4.2 0-7.6-2.8-7.6-7.3V15.9h-4.3zm-3.9.9c0-2.6-1.2-4.6-2.9-5.9-1.3-.9-2.9-1.4-4.7-1.4h-16.1v27.4h6.6V16.6c0-.4.3-.7.7-.7h9c.4 0 .7.3.7.7v4.5h6.6v-4.3zM22.8 17.9h6.4V9.5H7.6c-3.8 0-6.9 2.3-7.5 6-.1.5-.1.9-.1 1.3V20c.4 3.9 3.5 6.2 7.1 6.4h14.7c.4 0 .7.3.7.7v2.6c0 .4-.3.7-.7.7H6.4v-1.9H0v8.4h21.5c4.2 0 7.6-2.8 7.6-7.3v-2.3c0-.4 0-.9-.1-1.3-.6-3.7-3.7-6-7.3-6H7.3c-.4 0-.7-.3-.7-.7v-2.7c0-.4.3-.7.7-.7h15.4l.1 2zm159.9 0h6.4V9.5h-21.5c-3.8 0-6.9 2.3-7.5 6-.1.4-.1.8-.1 1.3V20c.4 3.9 3.5 6.2 7.1 6.4h14.7c.4 0 .7.3.7.7v2.6c0 .4-.3.7-.7.7h-15.4v-1.9H160v8.4h21.5c4.2 0 7.6-2.8 7.6-7.3v-2.3c0-.4 0-.9-.1-1.3-.6-3.7-3.7-6-7.3-6h-14.4c-.4 0-.7-.3-.7-.7v-2.7c0-.4.3-.7.7-.7h15.4v2zm10.4 10.8V16.8zm0 0v.9-.9zm22.8 1.8h-15.4c-.4 0-.7-.3-.7-.7v-2.6c0-.4.3-.7.7-.7h14.7c3.7-.2 6.7-2.6 7.1-6.4v-3.2c0-.4 0-.9-.1-1.3-.6-3.8-3.8-6-7.5-6h-13.9c-4.2 0-7.6 2.8-7.6 7.3v12.8c0 4.5 3.5 7.3 7.6 7.3h21.5v-8.4h-6.4v1.9zM200.3 20c-.4 0-.7-.3-.7-.7v-2.7c0-.4.3-.7.7-.7H215c.3 0 .5.2.6.4.1.1.1.2.1.3v2.7c0 .4-.3.7-.7.7h-14.7z"/></svg>