<?xml version="1.0" standalone="no"?>
<!DOCTYPE svg PUBLIC "-//W3C//DTD SVG 1.1//EN" "http://www.w3.org/Graphics/SVG/1.1/DTD/svg11.dtd" >
<svg xmlns="http://www.w3.org/2000/svg">
<metadata>Generated by IcoMoon</metadata>
<defs>
<font id="seicons" horiz-adv-x="1024">
<font-face units-per-em="1024" ascent="960" descent="-64" />
<missing-glyph horiz-adv-x="1024" />
<glyph unicode="&#x20;" horiz-adv-x="512" d="" />
<glyph unicode="&#xe900;" glyph-name="administrator-big" d="M803.2 67.2c-44.8 0-81.6 36.8-81.6 81.6s36.8 81.6 81.6 81.6 81.6-36.8 81.6-81.6-36.8-81.6-81.6-81.6zM803.2 196.8c-25.6 0-46.4-20.8-46.4-46.4s20.8-46.4 46.4-46.4 46.4 20.8 46.4 46.4-20.8 46.4-46.4 46.4zM841.6-64h-86.4c-9.6 0-17.6 8-17.6 17.6v40c-14.4 6.4-28.8 14.4-41.6 25.6l-28.8-17.6c-4.8-3.2-9.6-3.2-14.4-1.6s-8 4.8-11.2 8l-43.2 75.2c-4.8 8-1.6 19.2 6.4 24l32 17.6c-1.6 8-1.6 17.6-1.6 25.6s0 17.6 1.6 25.6l-32 17.6c-8 4.8-11.2 16-6.4 24l43.2 75.2c1.6 4.8 6.4 8 11.2 8 4.8 1.6 9.6 0 14.4-1.6l30.4-17.6c12.8 11.2 27.2 19.2 41.6 25.6v33.6c0 9.6 8 17.6 17.6 17.6h86.4c9.6 0 17.6-8 17.6-17.6v-33.6c17.6-6.4 33.6-16 46.4-25.6l33.6 19.2c8 4.8 19.2 1.6 24-6.4l43.2-75.2c1.6-4.8 3.2-9.6 1.6-14.4s-4.8-8-8-11.2l-32-17.6c1.6-8 1.6-17.6 1.6-25.6s0-16-1.6-25.6l32-17.6c4.8-1.6 6.4-6.4 8-11.2s0-9.6-1.6-14.4l-43.2-75.2c-4.8-8-16-11.2-24-6.4l-33.6 19.2c-12.8-9.6-28.8-19.2-46.4-25.6v-40c-1.6-9.6-9.6-17.6-19.2-17.6zM772.8-28.8h49.6v33.6c0 8 4.8 14.4 12.8 17.6 22.4 6.4 41.6 17.6 56 30.4 6.4 4.8 14.4 6.4 20.8 3.2l28.8-16 25.6 43.2-27.2 16c-6.4 3.2-9.6 11.2-8 19.2 3.2 11.2 3.2 20.8 3.2 30.4s-1.6 20.8-3.2 30.4c-1.6 8 1.6 16 8 19.2l27.2 16-25.6 43.2-28.8-16c-6.4-3.2-16-3.2-20.8 3.2-12.8 12.8-33.6 24-56 30.4-8 1.6-12.8 9.6-12.8 17.6v28.8h-49.6v-28.8c0-8-4.8-14.4-12.8-17.6-19.2-6.4-35.2-16-51.2-30.4-4.8-4.8-14.4-4.8-20.8-1.6l-25.6 16-24-43.2 27.2-16c6.4-3.2 9.6-11.2 8-19.2-1.6-9.6-3.2-20.8-3.2-30.4s1.6-19.2 3.2-30.4c1.6-8-1.6-16-8-19.2l-27.2-16 24-43.2 25.6 14.4c6.4 4.8 16 3.2 22.4-1.6 16-14.4 32-25.6 51.2-30.4 8-1.6 12.8-9.6 12.8-17.6v-35.2zM497.6 107.2h-451.2c-4.8 0-9.6 1.6-12.8 4.8s-4.8 8-4.8 12.8c0 4.8 4.8 116.8 25.6 179.2 14.4 46.4 92.8 72 182.4 102.4 32 11.2 64 20.8 92.8 33.6v84.8c-20.8 12.8-60.8 48-64 128-11.2 9.6-16 28.8-16 54.4 0 12.8 1.6 25.6 4.8 35.2 1.6 6.4 4.8 12.8 8 16 0 0 0 1.6 0 3.2-9.6 32-25.6 91.2 3.2 121.6 11.2 12.8 28.8 17.6 51.2 16 22.4 44.8 92.8 60.8 152 60.8 0 0 0 0 0 0 64 0 144-19.2 158.4-75.2 11.2-46.4-8-92.8-19.2-118.4 16-9.6 27.2-30.4 27.2-56 0-14.4-3.2-28.8-11.2-40-6.4-8-12.8-14.4-22.4-19.2-4.8-76.8-44.8-112-64-124.8v-83.2c20.8-6.4 40-12.8 57.6-19.2 12.8-4.8 25.6-9.6 38.4-12.8l-11.2-33.6c-12.8 4.8-25.6 8-40 12.8-20.8 8-43.2 14.4-70.4 24-8 1.6-12.8 9.6-12.8 17.6v107.2c0 8 4.8 14.4 11.2 16 1.6 1.6 52.8 24 52.8 112 0 9.6 8 17.6 17.6 17.6 11.2 0 14.4 16 14.4 27.2 0 9.6-3.2 27.2-14.4 27.2-4.8 0-9.6 1.6-12.8 4.8s-4.8 8-4.8 12.8c0 6.4 3.2 12.8 8 24 9.6 20.8 27.2 62.4 17.6 97.6-6.4 27.2-59.2 48-123.2 48 0 0 0 0 0 0-64 0-116.8-20.8-123.2-48-1.6-9.6-11.2-14.4-20.8-12.8-11.2 1.6-25.6 3.2-33.6-3.2-14.4-16 0-67.2 4.8-86.4 3.2-11.2 4.8-16 4.8-20.8 0-8-4.8-14.4-12.8-17.6-4.8-9.6-4.8-41.6 0-51.2 6.4-1.6 12.8-9.6 12.8-17.6 0-88 51.2-112 52.8-112 6.4-3.2 11.2-9.6 11.2-16v-107.2c0-8-4.8-14.4-11.2-16-33.6-14.4-70.4-27.2-105.6-38.4-70.4-24-150.4-51.2-160-80-14.4-43.2-20.8-116.8-24-152h432v-40z" />
<glyph unicode="&#xe901;" glyph-name="arrow-left-big" d="M972.8 499.2h-779.2l318.4 318.4c19.2 19.2 19.2 51.2 0 72-19.2 19.2-51.2 19.2-72 0l-440-440 440-440c9.6-9.6 22.4-14.4 35.2-14.4s25.6 4.8 35.2 14.4c19.2 19.2 19.2 51.2 0 72l-316.8 316.8h779.2c27.2 0 51.2 22.4 51.2 51.2 0 27.2-22.4 49.6-51.2 49.6z" />
<glyph unicode="&#xe902;" glyph-name="arrow-left-small" d="M953.6 518.4h-684.8l264 264c27.2 27.2 27.2 72 0 99.2s-72 27.2-99.2 0l-433.6-433.6 433.6-432c14.4-14.4 32-20.8 49.6-20.8s35.2 6.4 49.6 20.8c27.2 27.2 27.2 72 0 99.2l-264 262.4h684.8c38.4 0 70.4 32 70.4 70.4s-32 70.4-70.4 70.4z" />
<glyph unicode="&#xe903;" glyph-name="arrow-right-big" d="M51.2 499.2h779.2l-318.4 318.4c-19.2 19.2-19.2 51.2 0 72 19.2 19.2 51.2 19.2 72 0l440-440-440-440c-9.6-9.6-22.4-14.4-35.2-14.4s-25.6 4.8-35.2 14.4c-19.2 19.2-19.2 51.2 0 72l318.4 318.4h-780.8c-27.2 0-51.2 22.4-51.2 51.2 0 25.6 22.4 48 51.2 48z" />
<glyph unicode="&#xe904;" glyph-name="arrow-right-small" d="M70.4 518.4h684.8l-264 264c-27.2 27.2-27.2 72 0 99.2s72 27.2 99.2 0l432-432-432-433.6c-14.4-14.4-32-20.8-49.6-20.8s-35.2 6.4-49.6 20.8c-27.2 27.2-27.2 72 0 99.2l264 264h-684.8c-38.4-1.6-70.4 30.4-70.4 68.8s32 70.4 70.4 70.4z" />
<glyph unicode="&#xe905;" glyph-name="baseball-big" d="M984 708.8c-265.6 246.4-502.4 251.2-627.2 251.2-73.6 0-196.8-46.4-278.4-132.8-1.6 0-1.6-1.6-3.2-3.2-56-59.2-89.6-137.6-72-232 102.4-444.8 308.8-656 568-656 4.8 0 9.6 0 14.4 0 307.2 0 532.8 651.2 398.4 772.8zM793.6 808l-76.8-206.4c-24 32-54.4 57.6-89.6 75.2l36.8 195.2c41.6-16 84.8-36.8 129.6-64zM731.2 448c0-56-20.8-107.2-56-145.6-52.8 27.2-89.6 81.6-89.6 145.6s36.8 118.4 89.6 145.6c35.2-38.4 56-89.6 56-145.6zM512 913.6c35.2-6.4 75.2-14.4 116.8-28.8l-36.8-193.6c-25.6 8-52.8 12.8-80 12.8v209.6zM648 620.8c-59.2-35.2-99.2-99.2-99.2-172.8s40-137.6 97.6-172.8c-6.4-4.8-11.2-9.6-17.6-12.8-32 11.2-70.4 20.8-116.8 20.8s-84.8-9.6-116.8-20.8c-6.4 3.2-12.8 8-17.6 12.8 59.2 35.2 99.2 99.2 99.2 172.8s-40 137.6-99.2 172.8c36.8 28.8 84.8 46.4 136 46.4 49.6 0 96-17.6 134.4-46.4zM475.2 742.4v-40c-115.2-16-204.8-108.8-217.6-225.6-25.6 32-49.6 62.4-68.8 92.8 64 89.6 129.6 137.6 286.4 172.8zM168 603.2c-17.6 30.4-30.4 59.2-40 91.2 97.6 84.8 171.2 126.4 347.2 118.4v-32c-172.8-36.8-244.8-91.2-307.2-177.6zM348.8 593.6c52.8-27.2 91.2-81.6 91.2-145.6s-36.8-118.4-89.6-145.6c-35.2 38.4-56 89.6-56 147.2-1.6 54.4 19.2 105.6 54.4 144zM356.8 923.2c30.4 0 70.4 0 118.4-4.8v-67.2c-185.6 6.4-268.8-38.4-358.4-115.2-4.8 22.4-8 44.8-8 68.8 78.4 80 190.4 118.4 248 118.4zM784 80c-44.8-48-115.2-107.2-196.8-107.2-4.8 0-8 0-12.8 0-1.6 0-1.6 0-3.2 0-251.2 0-435.2 217.6-531.2 627.2-11.2 59.2 0 113.6 33.6 163.2 16-123.2 83.2-225.6 184-345.6 8-70.4 44.8-131.2 99.2-172.8-36.8-19.2-56-38.4-59.2-41.6-6.4-6.4-6.4-19.2 0-25.6s19.2-6.4 25.6 0c0 0 70.4 68.8 188.8 68.8s187.2-67.2 188.8-68.8c3.2-3.2 8-4.8 12.8-4.8s9.6 1.6 12.8 4.8c6.4 6.4 6.4 19.2 0 25.6-1.6 1.6-22.4 20.8-59.2 41.6 60.8 48 100.8 121.6 100.8 203.2 0 41.6-9.6 80-27.2 113.6l84.8 225.6c28.8-19.2 57.6-40 88-65.6l-107.2-286.4c0-1.6-1.6-4.8-1.6-6.4 0-9.6 8-17.6 17.6-17.6 8 0 14.4 4.8 17.6 11.2v0l102.4 273.6c6.4-4.8 11.2-9.6 17.6-16 40-35.2 41.6-176-25.6-350.4-38.4-96-91.2-185.6-150.4-249.6z" />
<glyph unicode="&#xe906;" glyph-name="baseball-jersey-big" d="M520 100.8c0-9.72-7.88-17.6-17.6-17.6s-17.6 7.88-17.6 17.6c0 9.72 7.88 17.6 17.6 17.6s17.6-7.88 17.6-17.6zM520 246.4c0-9.72-7.88-17.6-17.6-17.6s-17.6 7.88-17.6 17.6c0 9.72 7.88 17.6 17.6 17.6s17.6-7.88 17.6-17.6zM704 960h-329.6c0 0 0 0 0 0s0 0 0 0h-73.6c-214.4 0-236.8-166.4-236.8-238.4v-347.2c0-20.8 16-36.8 36.8-36.8h110.4v-366.4c0-20.8 16-36.8 36.8-36.8h512c20.8 0 36.8 16 36.8 36.8v366.4h110.4c20.8 0 36.8 16 36.8 36.8v347.2c-1.6 72-25.6 238.4-240 238.4zM580.8 923.2l-78.4-67.2-78.4 67.2h156.8zM760 731.2v0c-1.6-3.2-1.6-4.8-1.6-8v-750.4h-510.4v748.8c0 3.2-1.6 6.4-1.6 8v0l-76.8 155.2c30.4 22.4 73.6 38.4 134.4 38.4h64l123.2-105.6c3.2-3.2 6.4-4.8 11.2-4.8s8 1.6 11.2 4.8v0l123.2 105.6h67.2c60.8 0 104-14.4 134.4-38.4l-78.4-153.6zM520 393.6c0-9.72-7.88-17.6-17.6-17.6s-17.6 7.88-17.6 17.6c0 9.72 7.88 17.6 17.6 17.6s17.6-7.88 17.6-17.6zM548.8 648v0c11.2 4.8 20.8 11.2 27.2 19.2s9.6 17.6 9.6 30.4c0 6.4-1.6 12.8-4.8 19.2s-8 14.4-14.4 19.2c-6.4 6.4-14.4 11.2-25.6 16-9.6 4.8-22.4 6.4-38.4 6.4-9.6 0-19.2-1.6-28.8-3.2-9.6-3.2-17.6-6.4-25.6-12.8-8-4.8-14.4-11.2-19.2-19.2s-8-17.6-8-27.2c0-11.2 3.2-20.8 9.6-30.4 6.4-8 14.4-14.4 27.2-17.6v0c-14.4-3.2-25.6-9.6-33.6-19.2s-11.2-22.4-11.2-36.8c0-12.8 3.2-22.4 8-32s12.8-16 20.8-22.4c8-6.4 19.2-9.6 28.8-12.8 11.2-3.2 22.4-4.8 33.6-4.8s22.4 1.6 33.6 4.8c11.2 3.2 20.8 8 28.8 12.8 8 6.4 16 12.8 20.8 22.4s8 19.2 8 32c0 14.4-3.2 27.2-11.2 36.8-9.6 9.6-20.8 16-35.2 19.2zM468.8 705.6c1.6 3.2 4.8 6.4 8 9.6s8 4.8 11.2 6.4c4.8 1.6 9.6 1.6 14.4 1.6 8 0 14.4-1.6 19.2-3.2s8-4.8 11.2-8c3.2-3.2 4.8-6.4 4.8-9.6 1.6-3.2 1.6-6.4 1.6-9.6 0-9.6-3.2-17.6-9.6-22.4s-16-8-25.6-8c-9.6 0-19.2 3.2-25.6 8-8 4.8-11.2 12.8-11.2 22.4-1.6 4.8 0 9.6 1.6 12.8zM542.4 579.2c-1.6-4.8-4.8-9.6-9.6-12.8-3.2-3.2-8-6.4-12.8-8s-11.2-3.2-16-3.2c-6.4 0-11.2 1.6-16 3.2s-9.6 4.8-14.4 8c-3.2 3.2-6.4 8-9.6 12.8-1.6 4.8-3.2 9.6-3.2 16 0 11.2 4.8 20.8 12.8 27.2s19.2 9.6 30.4 9.6c6.4 0 11.2-1.6 16-3.2s9.6-4.8 12.8-8c3.2-3.2 6.4-6.4 9.6-11.2 1.6-4.8 3.2-9.6 3.2-14.4 0-6.4-1.6-11.2-3.2-16z" />
<glyph unicode="&#xe907;" glyph-name="basketball-big" d="M507.2 960c-280 0-507.2-230.4-507.2-512s227.2-512 507.2-512c280 0 507.2 230.4 507.2 512s-228.8 512-507.2 512zM860.8 761.6c64-73.6 105.6-168 115.2-272-52.8 27.2-112 41.6-171.2 41.6-72 0-140.8-20.8-198.4-56-35.2 44.8-73.6 83.2-113.6 118.4 96 75.2 216 137.6 368 168zM832 792c-150.4-33.6-270.4-99.2-366.4-176-28.8 24-59.2 44.8-88 64 52.8 65.6 84.8 148.8 84.8 240 0 0 0 0 0 1.6 14.4 1.6 30.4 1.6 46.4 1.6 123.2 0 238.4-49.6 323.2-131.2zM425.6 916.8c-1.6-83.2-30.4-158.4-78.4-217.6-60.8 36.8-120 64-172.8 84.8 65.6 67.2 153.6 115.2 251.2 132.8zM320 672c-62.4-60.8-145.6-97.6-238.4-97.6-9.6 0-19.2 0-28.8 1.6 17.6 67.2 51.2 128 94.4 179.2 51.2-19.2 112-46.4 172.8-83.2zM44.8 539.2c12.8-1.6 24-1.6 36.8-1.6 105.6 0 201.6 44.8 270.4 115.2 28.8-17.6 56-38.4 84.8-60.8-166.4-147.2-252.8-331.2-294.4-444.8-65.6 81.6-107.2 187.2-107.2 300.8 0 30.4 3.2 62.4 9.6 91.2zM169.6 116.8c36.8 110.4 121.6 302.4 294.4 452.8 38.4-33.6 76.8-72 112-115.2-91.2-70.4-150.4-182.4-150.4-307.2 0-60.8 14.4-120 41.6-172.8-116.8 9.6-220.8 62.4-297.6 142.4zM460.8 147.2c0 113.6 54.4 214.4 137.6 276.8 73.6-99.2 131.2-224 158.4-379.2-72-46.4-158.4-73.6-249.6-73.6-30.4 54.4-46.4 115.2-46.4 176zM790.4 68.8c-28.8 153.6-88 276.8-161.6 376 51.2 30.4 112 49.6 176 49.6 60.8 0 121.6-16 172.8-48 0-153.6-73.6-291.2-187.2-377.6z" />
<glyph unicode="&#xe908;" glyph-name="basketball-hoop-big" d="M512 960c-283.2 0-512-139.2-512-310.4v-363.2c-1.6-8 3.2-16 9.6-19.2s129.6-64 345.6-84.8c8-28.8 11.2-46.4 11.2-48 0 0 0 0 0 0v0l36.8-182.4c1.6-8 8-14.4 17.6-14.4h182.4c9.6 0 16 6.4 17.6 14.4v0l36.8 182.4c0 0 0 0 0 0s3.2 19.2 11.2 48c216 22.4 339.2 81.6 345.6 84.8s11.2 11.2 9.6 19.2v363.2c0 171.2-228.8 310.4-512 310.4zM360 291.2l35.2-35.2-17.6-17.6c-4.8 17.6-11.2 35.2-17.6 52.8zM577.6 256l-65.6-65.6-65.6 65.6 65.6 65.6 65.6-65.6zM547.2 339.2h113.6l-56-56-57.6 56zM420.8 281.6l-56 56h113.6l-57.6-56zM408 112l-4.8 27.2c0 0 0 1.6 0 1.6 0 1.6-4.8 24-12.8 57.6l32 32 65.6-65.6-65.6-65.6-14.4 12.8zM476.8-27.2h-41.6l-14.4 75.2 65.6-65.6-9.6-9.6zM446.4 73.6l65.6 65.6 65.6-65.6-65.6-65.6-65.6 65.6zM588.8-27.2h-41.6l-9.6 9.6 65.6 65.6-14.4-75.2zM622.4 139.2l-6.4-27.2-12.8-12.8-65.6 65.6 65.6 65.6 32-32c-9.6-33.6-12.8-56-12.8-59.2-1.6 1.6 0 0 0 0zM646.4 238.4l-17.6 17.6 35.2 35.2c-6.4-17.6-12.8-35.2-17.6-52.8zM312 374.4c-1.6 0-1.6 0-3.2 0h-16v292.8h438.4v-292.8h-16c-1.6 0-1.6 0-3.2 0h-400zM987.2 296c-32-14.4-140.8-56-308.8-75.2 11.2 35.2 25.6 76.8 46.4 118.4h60.8c9.6 0 17.6 8 17.6 17.6s-8 17.6-17.6 17.6h-17.6v292.8c0 20.8-16 36.8-36.8 36.8h-438.4c-20.8 0-36.8-16-36.8-36.8v-292.8h-17.6c-9.6 0-17.6-8-17.6-17.6s8-17.6 17.6-17.6h60.8c20.8-41.6 35.2-83.2 46.4-118.4-166.4 19.2-275.2 60.8-308.8 75.2v353.6c0 150.4 212.8 273.6 475.2 273.6s475.2-123.2 475.2-273.6v-353.6z" />
<glyph unicode="&#xe909;" glyph-name="close-big" d="M576 448l435.2 435.2c17.6 17.6 17.6 46.4 0 64s-46.4 17.6-64 0l-435.2-435.2-435.2 435.2c-17.6 17.6-46.4 17.6-64 0s-17.6-46.4 0-64l435.2-435.2-435.2-435.2c-17.6-17.6-17.6-46.4 0-64 8-8 20.8-12.8 32-12.8s22.4 4.8 32 12.8l435.2 435.2 435.2-435.2c8-8 20.8-12.8 32-12.8s22.4 4.8 32 12.8c17.6 17.6 17.6 46.4 0 64l-435.2 435.2z" />
<glyph unicode="&#xe90a;" glyph-name="close-small" d="M603.2 448l401.6 403.2c25.6 25.6 25.6 65.6 0 91.2s-65.6 25.6-91.2 0l-401.6-403.2-403.2 401.6c-25.6 25.6-65.6 25.6-91.2 0s-25.6-65.6 0-91.2l403.2-401.6-401.6-403.2c-25.6-25.6-25.6-65.6 0-91.2 12.8-11.2 28.8-17.6 44.8-17.6s32 6.4 44.8 19.2l403.2 401.6 403.2-403.2c12.8-11.2 28.8-17.6 44.8-17.6s32 6.4 44.8 19.2c25.6 25.6 25.6 65.6 0 91.2l-401.6 401.6z" />
<glyph unicode="&#xe90b;" glyph-name="coach-big" d="M390.4 49.6c-43.2 0-88 11.2-131.2 32-41.6 20.8-76.8 54.4-97.6 94.4-46.4 92.8-44.8 190.4 4.8 272 44.8 75.2 123.2 120 208 124.8v0h12.8c1.6 0 1.6 0 3.2 0v0h110.4v-102.4h52.8v102.4h470.4v-179.2h-284.8c-36.8 0-83.2-25.6-86.4-89.6v-8c0-3.2 0-8-1.6-11.2-8-84.8-59.2-161.6-134.4-203.2-38.4-20.8-81.6-32-126.4-32zM390.4 537.6c-80 0-152-40-193.6-108.8-43.2-70.4-43.2-156.8-3.2-236.8 17.6-33.6 46.4-62.4 81.6-80 75.2-36.8 156.8-38.4 224 0 65.6 36.8 108.8 102.4 116.8 176v1.6c0 1.6 0 3.2 0 4.8v9.6c4.8 83.2 64 121.6 121.6 124.8h249.6v107.2h-396.8v-102.4h-124.8v102.4h-75.2zM86.4 222.4c-19.2 0-38.4 6.4-56 19.2-4.8 3.2-8 6.4-11.2 11.2-20.8 30.4-24 67.2-9.6 96s44.8 46.4 76.8 46.4h1.6c9.6 0 17.6-8 17.6-17.6s-8-17.6-17.6-17.6c0 0 0 0 0 0-20.8 0-36.8-9.6-46.4-27.2-9.6-19.2-6.4-40 6.4-60.8 0 0 1.6-1.6 1.6-1.6 12.8-8 25.6-12.8 36.8-12.8 0 0 0 0 0 0 9.6 0 17.6-8 17.6-17.6s-8-17.6-17.6-19.2c1.6 1.6 0 1.6 0 1.6zM528 664c-9.6 0-17.6 8-17.6 17.6v195.2c0 9.6 8 17.6 17.6 17.6s17.6-8 17.6-17.6v-195.2c1.6-9.6-6.4-17.6-17.6-17.6zM454.4 670.4c-4.8 0-9.6 1.6-12.8 6.4l-102.4 116.8c-6.4 8-6.4 19.2 1.6 25.6s19.2 6.4 25.6-1.6l102.4-116.8c6.4-8 6.4-19.2-1.6-25.6-3.2-3.2-8-4.8-12.8-4.8zM603.2 668.8c-4.8 0-8 1.6-11.2 4.8-8 6.4-8 17.6-1.6 25.6l102.4 116.8c6.4 8 17.6 8 25.6 1.6s8-17.6 1.6-25.6l-102.4-116.8c-4.8-4.8-9.6-6.4-14.4-6.4z" />
<glyph unicode="&#xe90c;" glyph-name="download-small" d="M840 572.8c-25.6 25.6-65.6 25.6-91.2 0l-172.8-172.8v496c0 35.2-28.8 64-64 64s-64-28.8-64-64v-499.2l-166.4 166.4c-25.6 25.6-65.6 25.6-91.2 0s-25.6-65.6 0-91.2l318.4-318.4 329.6 329.6c25.6 24 25.6 65.6 1.6 89.6zM811.2-64h-598.4c-35.2 0-64 28.8-64 64s28.8 64 64 64h598.4c35.2 0 64-28.8 64-64s-28.8-64-64-64z" />
<glyph unicode="&#xe90d;" glyph-name="dropdown-big" d="M512 91.2l-494.4 494.4c-24 24-24 62.4 0 84.8 24 24 62.4 24 84.8 0l409.6-409.6 409.6 409.6c24 24 62.4 24 84.8 0 24-24 24-62.4 0-84.8l-494.4-494.4z" />
<glyph unicode="&#xe90e;" glyph-name="dropdown-small" d="M512 83.2l-489.6 488c-30.4 30.4-30.4 78.4 0 108.8s78.4 30.4 108.8 0l380.8-379.2 380.8 379.2c30.4 30.4 78.4 30.4 108.8 0s30.4-78.4 0-108.8l-489.6-488z" />
<glyph unicode="&#xe90f;" glyph-name="email-big" d="M1024 572.8c0 0 0 1.6 0 0 0 3.2-1.6 4.8-3.2 6.4 0 0 0 0 0 0s0 0 0 0c-1.6 1.6-3.2 3.2-4.8 4.8l-492.8 344c-6.4 4.8-14.4 4.8-20.8 0l-492.8-342.4c0 0 0 0 0 0v0c-1.6-1.6-3.2-3.2-4.8-4.8 0 0 0 0 0 0s0 0 0 0c-1.6-1.6-1.6-3.2-1.6-6.4 0 0 0 0 0-1.6s0-1.6 0-3.2v-472c0-44.8 36.8-83.2 83.2-83.2h859.2c44.8 0 83.2 36.8 83.2 83.2v472c-3.2 1.6-4.8 3.2-4.8 3.2zM942.4 51.2h-859.2c-25.6 0-46.4 20.8-46.4 46.4v438.4l230.4-152c3.2-1.6 6.4-3.2 9.6-3.2 6.4 0 11.2 3.2 14.4 8 4.8 8 3.2 19.2-4.8 25.6l-235.2 156.8 462.4 320 462.4-321.6-235.2-156.8c-8-4.8-11.2-16-4.8-25.6 3.2-4.8 9.6-8 14.4-8 3.2 0 6.4 1.6 9.6 3.2l230.4 153.6v-438.4c-1.6-25.6-22.4-46.4-48-46.4zM673.6 348.8c-3.2 1.6-6.4 3.2-9.6 3.2h-300.8c-3.2 0-8-1.6-9.6-3.2l-216-150.4c-8-6.4-9.6-17.6-4.8-25.6 6.4-8 17.6-9.6 25.6-4.8l209.6 148.8h289.6l209.6-147.2c3.2-1.6 6.4-3.2 9.6-3.2 6.4 0 11.2 3.2 14.4 8 6.4 8 3.2 19.2-4.8 25.6l-212.8 148.8z" />
<glyph unicode="&#xe910;" glyph-name="email-small" d="M918.4 768h-812.8c-59.2 0-105.6-46.4-105.6-105.6v-497.6c0-57.6 46.4-105.6 105.6-105.6h814.4c57.6 0 105.6 46.4 105.6 105.6v497.6c-1.6 59.2-48 105.6-107.2 105.6zM886.4 692.8l-374.4-299.2-374.4 299.2h748.8zM918.4 134.4h-812.8c-17.6 0-30.4 14.4-30.4 30.4v483.2l414.4-331.2c6.4-4.8 14.4-8 24-8 8 0 16 3.2 24 8l414.4 331.2v-483.2c-3.2-17.6-16-30.4-33.6-30.4z" />
<glyph unicode="&#xe911;" glyph-name="file-quote-big" d="M913.6 691.2c-1.6 1.6-1.6 4.8-3.2 6.4 0 0 0 0 0 0l-260.8 257.6c0 0-1.6 0-1.6 1.6-1.6 1.6-3.2 1.6-4.8 3.2-1.6 0-3.2 0-6.4 0h-473.6c-11.2 0-19.2-8-19.2-17.6v-987.2c0-9.6 8-17.6 17.6-17.6h734.4c9.6 0 17.6 8 17.6 17.6v729.6c1.6 1.6 0 4.8 0 6.4zM656 897.6l196.8-195.2h-196.8v195.2zM180.8-27.2v950.4h438.4v-240c0-9.6 8-17.6 17.6-17.6h241.6v-694.4h-697.6zM529.6 168h-193.6c-9.6 0-17.6 8-17.6 17.6s8 17.6 17.6 17.6h193.6c9.6 0 17.6-8 17.6-17.6s-8-17.6-17.6-17.6zM723.2 368h-387.2c-9.6 0-17.6 8-17.6 17.6s8 17.6 17.6 17.6h388.8c9.6 0 17.6-8 17.6-17.6s-8-17.6-19.2-17.6zM723.2 270.4h-387.2c-9.6 0-17.6 8-17.6 17.6s8 17.6 17.6 17.6h388.8c9.6 0 17.6-8 17.6-17.6s-8-17.6-19.2-17.6zM406.4 696c19.2-1.6 33.6-4.8 43.2-9.6l-9.6-27.2c-8 3.2-22.4 9.6-43.2 11.2-22.4 0-30.4-11.2-30.4-20.8 0-12.8 11.2-19.2 38.4-28.8 35.2-12.8 51.2-28.8 51.2-56 0-25.6-19.2-48-54.4-52.8v-30.4h-25.6v28.8c-19.2 0-40 6.4-51.2 12.8l8 28.8c12.8-6.4 30.4-12.8 49.6-12.8s33.6 8 33.6 22.4c0 12.8-11.2 22.4-33.6 30.4-33.6 11.2-54.4 25.6-54.4 54.4 0 25.6 19.2 44.8 51.2 49.6v28.8h25.6l1.6-28.8z" />
<glyph unicode="&#xe912;" glyph-name="file-small" d="M915.2 681.6c0 1.6-1.6 3.2-1.6 6.4 0 0 0 1.6 0 1.6-1.6 1.6-1.6 4.8-3.2 6.4 0 0 0 0 0 0-1.6 1.6-3.2 4.8-4.8 6.4 0 0 0 0 0 0l-249.6 246.4c0 0 0 0 0 0v0c0 0 0 0 0 0-1.6 1.6-3.2 3.2-4.8 4.8 0 0-1.6 1.6-1.6 1.6-1.6 1.6-3.2 1.6-4.8 3.2-1.6 0-1.6 0-3.2 1.6-1.6 0-3.2 1.6-4.8 1.6-3.2 0-4.8 0-8 0h-454.4c-22.4-1.6-40-19.2-40-41.6v-944c0-22.4 17.6-40 40-40h702.4c22.4 0 40 17.6 40 40v697.6c-1.6 3.2-1.6 4.8-1.6 8zM214.4 16v864h374.4v-206.4c0-22.4 17.6-40 40-40h208v-617.6h-622.4zM524.8 508.8h-185.6c-22.4 0-40 17.6-40 40s17.6 40 40 40h185.6c22.4 0 40-17.6 40-40s-17.6-40-40-40zM710.4 355.2h-371.2c-22.4 0-40 17.6-40 40s17.6 40 40 40h371.2c22.4 0 40-17.6 40-40s-17.6-40-40-40zM710.4 201.6h-371.2c-22.4 0-40 17.6-40 40s17.6 40 40 40h371.2c22.4 0 40-17.6 40-40s-17.6-40-40-40z" />
<glyph unicode="&#xe913;" glyph-name="football-big" d="M1022.4 894.4c-3.2 33.6-30.4 60.8-64 64 0 0 0 0 0 0-139.2 12.8-496-28.8-712-243.2-214.4-216-257.6-580.8-244.8-715.2 3.2-32 30.4-59.2 62.4-62.4 14.4-1.6 30.4-1.6 49.6-1.6 160 0 472 54.4 664 248 216 214.4 257.6 572.8 244.8 710.4zM68.8-24c-16 1.6-27.2 14.4-28.8 28.8-4.8 49.6-1.6 131.2 16 225.6l238.4-238.4c-94.4-17.6-177.6-20.8-225.6-16zM752 209.6c-115.2-113.6-273.6-177.6-414.4-209.6l-273.6 273.6c32 140.8 96 299.2 209.6 414.4 97.6 97.6 230.4 158.4 355.2 193.6l316.8-316.8c-35.2-124.8-96-257.6-193.6-355.2zM956.8 606.4l-286.4 286.4c91.2 22.4 176 30.4 236.8 30.4 17.6 0 33.6 0 48-1.6 16-1.6 27.2-14.4 28.8-28.8 6.4-60.8 0-168-27.2-286.4zM668.8 641.6c-8 8-19.2 8-27.2 0l-40-41.6-41.6 41.6c-8 8-19.2 8-27.2 0s-8-19.2 0-27.2l41.6-41.6-81.6-81.6-41.6 41.6c-8 8-19.2 8-27.2 0s-8-19.2 0-27.2l41.6-41.6-80-80-41.6 41.6c-8 8-19.2 8-27.2 0s-8-19.2 0-27.2l41.6-41.6-41.6-41.6c-8-8-8-19.2 0-27.2 3.2-3.2 8-4.8 12.8-4.8s9.6 1.6 12.8 4.8l41.6 41.6 41.6-41.6c3.2-3.2 8-4.8 12.8-4.8s9.6 1.6 12.8 4.8c8 8 8 19.2 0 27.2l-41.6 41.6 81.6 81.6 41.6-41.6c3.2-3.2 8-4.8 12.8-4.8s9.6 1.6 12.8 4.8c8 8 8 19.2 0 27.2l-41.6 41.6 81.6 81.6 40-40c3.2-3.2 8-4.8 12.8-4.8s9.6 1.6 12.8 4.8c8 8 8 19.2 0 27.2l-41.6 40 41.6 41.6c12.8 6.4 12.8 17.6 4.8 25.6z" />
<glyph unicode="&#xe914;" glyph-name="football-helmet-big" d="M1024 256c0 9.6-8 17.6-17.6 17.6 0 0 0 0 0 0h-344c20.8 123.2 110.4 128 161.6 128 57.6 0 54.4 40 54.4 73.6-1.6 136-97.6 420.8-430.4 420.8s-443.2-241.6-440-382.4c1.6-139.2 11.2-211.2-6.4-254.4-11.2-19.2 33.6-22.4 107.2-22.4 204.8 0 200-182.4 364.8-182.4 12.8 0 91.2 8 140.8 57.6l313.6-92.8c1.6 0 3.2-1.6 4.8-1.6 8 0 14.4 4.8 17.6 12.8v0l73.6 219.2c0 3.2 0 4.8 0 6.4zM473.6 91.2c-62.4 0-94.4 32-134.4 73.6-48 49.6-107.2 110.4-230.4 110.4-28.8 0-51.2 0-65.6 1.6 6.4 35.2 4.8 80 3.2 145.6-1.6 25.6-1.6 57.6-3.2 92.8 0 62.4 24 156.8 97.6 232s176 113.6 305.6 113.6c134.4 0 238.4-48 308.8-144 60.8-81.6 84.8-179.2 84.8-240v-4.8c0-9.6 0-25.6-3.2-30.4 0 0-3.2-3.2-16-3.2-132.8 0-201.6-73.6-201.6-219.2 1.6-120-144-128-145.6-128zM638.4 144c11.2 20.8 19.2 44.8 19.2 75.2 0 6.4 0 12.8 0 17.6h212.8l-49.6-148.8-182.4 56zM921.6 59.2l-64 19.2 52.8 158.4h70.4l-59.2-177.6zM494.4 273.6c-30.4 0-54.4-24-54.4-54.4s24-54.4 54.4-54.4c30.4 0 54.4 24 54.4 54.4s-25.6 54.4-54.4 54.4zM494.4 201.6c-9.6 0-17.6 8-17.6 17.6s8 17.6 17.6 17.6c9.6 0 17.6-8 17.6-17.6s-8-17.6-17.6-17.6z" />
<glyph unicode="&#xe915;" glyph-name="football-jersey-big" d="M561.6 532.8v0c12.8 4.8 22.4 11.2 28.8 20.8s9.6 19.2 9.6 32c0 6.4-1.6 12.8-4.8 20.8s-8 14.4-14.4 20.8c-6.4 6.4-16 12.8-27.2 17.6s-25.6 6.4-41.6 6.4c-11.2 0-20.8-1.6-32-4.8s-19.2-6.4-28.8-12.8c-8-6.4-14.4-12.8-20.8-20.8-4.8-8-8-17.6-8-28.8 0-12.8 3.2-22.4 9.6-32s16-16 28.8-19.2v0c-16-3.2-27.2-11.2-36.8-20.8-8-11.2-12.8-24-12.8-40 0-12.8 3.2-25.6 8-35.2s12.8-17.6 22.4-24c9.6-6.4 19.2-11.2 32-14.4 11.2-3.2 24-4.8 36.8-4.8s24 1.6 35.2 4.8c11.2 3.2 22.4 8 32 14.4s16 14.4 22.4 24c4.8 9.6 8 20.8 8 33.6 0 16-4.8 28.8-12.8 40-6.4 12.8-17.6 19.2-33.6 22.4zM475.2 595.2c1.6 4.8 4.8 8 8 11.2s8 4.8 12.8 6.4c4.8 1.6 9.6 1.6 14.4 1.6 8 0 14.4-1.6 19.2-3.2s9.6-4.8 11.2-8c3.2-3.2 4.8-8 6.4-11.2s1.6-8 1.6-11.2c0-11.2-3.2-19.2-11.2-24s-16-8-28.8-8c-11.2 0-20.8 3.2-27.2 8-8 4.8-11.2 12.8-11.2 24 1.6 4.8 3.2 9.6 4.8 14.4zM553.6 457.6c-1.6-4.8-4.8-9.6-9.6-12.8s-9.6-6.4-14.4-8c-4.8-1.6-11.2-3.2-17.6-3.2s-12.8 1.6-17.6 3.2c-6.4 1.6-11.2 4.8-14.4 8-4.8 3.2-8 8-9.6 12.8-3.2 4.8-3.2 11.2-3.2 17.6 0 12.8 4.8 22.4 12.8 28.8 9.6 6.4 19.2 9.6 33.6 9.6 6.4 0 12.8-1.6 17.6-3.2s9.6-4.8 14.4-8c4.8-3.2 8-8 9.6-12.8s3.2-9.6 3.2-16c-1.6-4.8-1.6-9.6-4.8-16zM728 928c0 0 0 0 0 0h-40c-8 0-12.8-4.8-16-9.6v0c-17.6-33.6-86.4-68.8-160-68.8s-142.4 35.2-160 68.8v0c-3.2 6.4-9.6 9.6-16 9.6h-40c0 0 0 0 0 0-232 0-296-179.2-296-256v-256c0-22.4 17.6-40 40-40h156.8v-355.2c0-22.4 17.6-40 40-40h552c22.4 0 40 17.6 40 40v355.2h156.8c22.4 0 40 17.6 40 40v256c-1.6 76.8-65.6 256-297.6 256zM196.8 416h-156.8v118.4h156.8v-118.4zM196.8 572.8h-156.8v40h156.8v-40zM984 416h-156.8v118.4h156.8v-118.4zM984 572.8h-156.8v40h156.8v-40zM984 652.8h-156.8v19.2c0 11.2-9.6 19.2-19.2 19.2s-19.2-9.6-19.2-19.2c0 0 0 0 0 0v-649.6h-552v649.6c0 11.2-9.6 19.2-19.2 19.2s-19.2-9.6-19.2-19.2c0 0 0 0 0 0v-19.2h-158.4v19.2c0 96 73.6 211.2 244.8 216 27.2-67.2 118.4-118.4 228.8-118.4s201.6 49.6 228.8 118.4c168-4.8 241.6-120 241.6-216v-19.2z" />
<glyph unicode="&#xe916;" glyph-name="hockey-big" d="M916.8 556.8v-219.2c0-222.4-180.8-401.6-401.6-401.6s-403.2 179.2-403.2 403.2v217.6c0 224 180.8 403.2 403.2 403.2s401.6-179.2 401.6-403.2zM880 556.8c0 203.2-163.2 366.4-364.8 366.4s-366.4-163.2-366.4-366.4v-219.2c0-201.6 163.2-366.4 364.8-366.4s366.4 164.8 366.4 368v217.6zM478.4 521.6c0-51.2-49.6-91.2-110.4-91.2s-108.8 41.6-108.8 91.2 49.6 91.2 108.8 91.2c60.8 0 110.4-41.6 110.4-91.2zM441.6 521.6c0 30.4-33.6 54.4-73.6 54.4s-73.6-24-73.6-54.4c0-30.4 33.6-54.4 73.6-54.4s73.6 24 73.6 54.4zM478.4 740.8c0-30.4-24-54.4-54.4-54.4s-54.4 25.6-54.4 54.4c0 30.4 25.6 54.4 54.4 54.4s54.4-24 54.4-54.4zM478.4 265.6c0-30.4-24-54.4-54.4-54.4s-54.4 24-54.4 54.4c0 30.4 25.6 54.4 54.4 54.4s54.4-24 54.4-54.4zM478.4 118.4c0-30.4-24-54.4-54.4-54.4s-54.4 24-54.4 54.4c0 30.4 25.6 54.4 54.4 54.4s54.4-24 54.4-54.4zM441.6 740.8c0 9.6-8 19.2-19.2 19.2-9.6 0-17.6-8-17.6-19.2 0-9.6 8-17.6 17.6-17.6 11.2 0 19.2 8 19.2 17.6zM441.6 265.6c0 9.6-8 19.2-19.2 19.2-9.6 0-17.6-8-17.6-19.2 0-9.6 8-17.6 17.6-17.6 11.2-1.6 19.2 6.4 19.2 17.6zM441.6 118.4c0 9.6-8 17.6-19.2 17.6-9.6 0-17.6-8-17.6-17.6s8-19.2 17.6-19.2c11.2 1.6 19.2 9.6 19.2 19.2zM550.4 740.8c0 30.4 24 54.4 54.4 54.4s54.4-24 54.4-54.4c0-30.4-25.6-54.4-54.4-54.4-28.8-1.6-54.4 24-54.4 54.4zM771.2 521.6c0-51.2-49.6-91.2-108.8-91.2-60.8 0-110.4 41.6-110.4 91.2s49.6 91.2 110.4 91.2c59.2 0 108.8-41.6 108.8-91.2zM660.8 265.6c0-30.4-25.6-54.4-54.4-54.4-30.4 0-54.4 24-54.4 54.4s24 54.4 54.4 54.4c30.4 0 54.4-24 54.4-54.4zM660.8 118.4c0-30.4-25.6-54.4-54.4-54.4-30.4 0-54.4 24-54.4 54.4s24 54.4 54.4 54.4c30.4 0 54.4-24 54.4-54.4zM587.2 740.8c0-9.6 8-17.6 19.2-17.6 9.6 0 17.6 8 17.6 17.6s-8 19.2-17.6 19.2c-9.6-1.6-19.2-9.6-19.2-19.2zM734.4 521.6c0 30.4-33.6 54.4-73.6 54.4s-73.6-24-73.6-54.4c0-30.4 33.6-54.4 73.6-54.4s73.6 24 73.6 54.4zM624 265.6c0 9.6-8 19.2-17.6 19.2s-19.2-8-19.2-19.2c0-9.6 8-17.6 19.2-17.6 9.6-1.6 17.6 6.4 17.6 17.6zM624 118.4c0 9.6-8 17.6-17.6 17.6s-19.2-8-19.2-17.6c0-9.6 8-19.2 19.2-19.2 9.6 1.6 17.6 9.6 17.6 19.2z" />
<glyph unicode="&#xe917;" glyph-name="league" d="M992 808v-198.4c0-502.4-436.8-673.6-475.2-673.6s-475.2 171.2-475.2 673.6v198.4h19.2c246.4 0 444.8 140.8 446.4 142.4l11.2 9.6 9.6-8c1.6-1.6 200-142.4 446.4-142.4h17.6zM955.2 774.4c-220.8 6.4-393.6 112-438.4 140.8-44.8-28.8-217.6-136-438.4-140.8v-164.8c0-470.4 395.2-635.2 438.4-636.8 43.2 3.2 438.4 166.4 438.4 636.8v164.8zM518.4 734.4l65.6-195.2h209.6l-169.6-118.4 60.8-192-166.4 112-166.4-112 60.8 192-169.6 120h209.6l65.6 193.6zM555.2 502.4l-36.8 113.6-36.8-113.6h-124.8l99.2-70.4-36.8-113.6 99.2 68.8 97.6-68.8-35.2 113.6 99.2 70.4h-124.8z" />
<glyph unicode="&#xe918;" glyph-name="location-big" d="M515.2-64c-6.4 0-11.2 3.2-14.4 8-12.8 20.8-324.8 494.4-324.8 675.2-1.6 188.8 152 340.8 339.2 340.8s340.8-152 340.8-340.8c0-180.8-312-656-324.8-675.2-4.8-4.8-9.6-8-16-8zM515.2 923.2c-168 0-304-136-304-304 0-148.8 240-532.8 304-632 64 99.2 304 483.2 304 632 0 168-136 304-304 304zM515.2 473.6c-81.6 0-147.2 65.6-147.2 147.2s65.6 147.2 147.2 147.2 147.2-65.6 147.2-147.2-67.2-147.2-147.2-147.2zM515.2 731.2c-60.8 0-110.4-49.6-110.4-110.4s49.6-110.4 110.4-110.4 110.4 49.6 110.4 110.4-49.6 110.4-110.4 110.4z" />
<glyph unicode="&#xe919;" glyph-name="location-small" d="M512-64c-12.8 0-25.6 6.4-33.6 17.6-32 48-315.2 481.6-315.2 657.6 0 192 156.8 348.8 348.8 348.8s347.2-156.8 347.2-347.2c0-177.6-281.6-609.6-315.2-657.6-6.4-12.8-19.2-19.2-32-19.2zM512 880c-147.2 0-267.2-120-267.2-267.2 0-115.2 171.2-409.6 267.2-563.2 97.6 153.6 267.2 448 267.2 563.2 0 147.2-120 267.2-267.2 267.2zM635.2 612.8c0-68.041-55.159-123.2-123.2-123.2s-123.2 55.159-123.2 123.2c0 68.041 55.159 123.2 123.2 123.2s123.2-55.159 123.2-123.2z" />
<glyph unicode="&#xe91a;" glyph-name="medal-big" d="M512 614.4c-187.2 0-340.8-152-340.8-340.8s152-339.2 340.8-339.2c187.2 0 340.8 152 340.8 340.8s-153.6 339.2-340.8 339.2zM512-30.4c-168 0-304 136-304 304s136 304 304 304 304-136 304-304-137.6-304-304-304zM704 356.8h-118.4l-57.6 118.4c-3.2 6.4-9.6 9.6-16 9.6s-12.8-3.2-16-9.6l-59.2-118.4h-118.4c-8 0-14.4-4.8-17.6-12.8s0-16 6.4-20.8l97.6-78.4-40-139.2c-1.6-6.4 0-14.4 6.4-19.2s14.4-4.8 20.8-1.6l120 75.2 120-75.2c3.2-1.6 6.4-3.2 9.6-3.2s8 1.6 11.2 3.2c6.4 4.8 8 12.8 6.4 19.2l-40 139.2 97.6 78.4c6.4 4.8 8 12.8 6.4 20.8-4.8 9.6-11.2 14.4-19.2 14.4zM585.6 267.2c-6.4-4.8-8-12.8-6.4-19.2l30.4-105.6-89.6 56c-3.2 1.6-6.4 3.2-9.6 3.2s-6.4-1.6-9.6-3.2l-89.6-56 30.4 105.6c1.6 6.4 0 14.4-6.4 19.2l-65.6 52.8h76.8c6.4 0 12.8 3.2 16 9.6l48 96 48-96c3.2-6.4 9.6-9.6 16-9.6h76.8l-65.6-52.8zM998.4 948.8c-3.2 4.8-9.6 8-16 8h-214.4c-6.4 0-12.8-4.8-16-9.6l-123.2-257.6c-4.8-9.6 0-19.2 8-24 9.6-4.8 19.2 0 24 8l118.4 248h68.8l-129.6-273.6c-4.8-9.6 0-19.2 8-24 1.6-1.6 4.8-1.6 6.4-1.6 0 0 0 0 0 0s0 0 0 0c1.6 0 3.2 0 6.4 1.6 0 0 1.6 0 1.6 0 1.6 0 3.2 1.6 4.8 3.2 0 0 1.6 0 1.6 1.6 1.6 1.6 3.2 3.2 3.2 4.8l137.6 289.6h67.2l-160-332.8c-4.8-9.6 0-19.2 8-24 3.2-1.6 4.8-1.6 8-1.6 6.4 0 12.8 3.2 16 9.6l172.8 356.8c3.2 6.4 1.6 12.8-1.6 17.6zM209.6 563.2c3.2 0 4.8 0 8 1.6 9.6 4.8 12.8 14.4 8 24l-160 332.8h67.2l137.6-289.6c1.6-1.6 1.6-3.2 3.2-4.8 0 0 1.6 0 1.6-1.6 1.6-1.6 3.2-1.6 4.8-3.2 0 0 1.6 0 1.6 0 1.6 0 3.2-1.6 6.4-1.6 0 0 0 0 0 0s0 0 0 0c1.6 0 4.8 0 6.4 1.6 9.6 4.8 12.8 14.4 8 24l-129.6 275.2h67.2l118.4-248c4.8-9.6 14.4-12.8 24-8s12.8 14.4 8 24l-121.6 257.6c-3.2 6.4-9.6 9.6-16 9.6h-216c-6.4 0-11.2-3.2-16-8-3.2-4.8-3.2-11.2 0-17.6l172.8-358.4c3.2-6.4 9.6-9.6 16-9.6z" />
<glyph unicode="&#xe91b;" glyph-name="minus-big" d="M968 392h-912c-30.4 0-56 25.6-56 56s25.6 56 56 56h912c30.4 0 56-25.6 56-56s-25.6-56-56-56z" />
<glyph unicode="&#xe91c;" glyph-name="minus-small" d="M952 372.8c0 0 0 0 0 0l-880 3.2c-40 0-72 33.6-72 72 0 40 32 72 72 72 0 0 0 0 0 0l880-3.2c40 0 72-32 72-72s-32-72-72-72z" />
<glyph unicode="&#xe91d;" glyph-name="plus-big" d="M968 504h-400v400c0 30.4-25.6 56-56 56s-56-25.6-56-56v-400h-400c-30.4 0-56-25.6-56-56s25.6-56 56-56h400v-400c0-30.4 25.6-56 56-56s56 25.6 56 56v400h400c30.4 0 56 25.6 56 56s-25.6 56-56 56z" />
<glyph unicode="&#xe91e;" glyph-name="plus-small" d="M952 516.8l-368 1.6 1.6 368c0 0 0 0 0 0 0 40-32 72-72 72s-72-32-72-72l-1.6-368-368 1.6c0 0 0 0 0 0-40 0-72-32-72-72s32-72 72-72l368-1.6-1.6-368c0 0 0 0 0 0 0-40 32-72 72-72s72 32 72 72l1.6 368 368-1.6c0 0 0 0 0 0 40 0 72 32 72 72s-32 72-72 72z" />
<glyph unicode="&#xe91f;" glyph-name="powerpay" d="M790.4 566.4c27.2-1.6 44.8-8 57.6-14.4l-11.2-36.8c-9.6 4.8-28.8 14.4-57.6 14.4-30.4 0-40-14.4-40-27.2 0-16 14.4-25.6 51.2-40 46.4-17.6 68.8-38.4 67.2-73.6 0-33.6-25.6-64-72-70.4v-41.6h-35.2v38.4c-27.2 0-52.8 8-68.8 17.6l11.2 36.8c16-9.6 40-17.6 65.6-17.6 27.2 0 44.8 11.2 44.8 30.4 0 17.6-14.4 30.4-46.4 40-44.8 16-73.6 35.2-72 72 0 35.2 25.6 60.8 68.8 67.2v38.4h35.2l1.6-33.6zM1024 784v-676.8c0-32-25.6-56-56-56h-395.2c-32 0-56 25.6-56 56v676.8c0 32 25.6 56 56 56h395.2c30.4 1.6 56-24 56-56zM995.2 784c0 16-12.8 28.8-28.8 28.8h-393.6c-16 0-28.8-12.8-28.8-28.8v-56h451.2v56zM995.2 699.2h-449.6v-507.2h451.2v507.2zM995.2 164.8h-449.6v-56c0-16 12.8-28.8 28.8-28.8h395.2c16 0 28.8 12.8 28.8 28.8v56zM812.8 771.2c0-8-6.4-14.4-14.4-14.4h-56c-8 0-14.4 6.4-14.4 14.4s6.4 14.4 14.4 14.4h56c8-1.6 14.4-8 14.4-14.4zM742.4 121.6c0 16 12.8 28.8 28.8 28.8s28.8-12.8 28.8-28.8c0-16-12.8-28.8-28.8-28.8s-28.8 12.8-28.8 28.8zM0 769.6c0 8 6.4 16 16 16h425.6c8 0 16-6.4 16-16s-6.4-16-16-16h-425.6c-9.6 0-16 6.4-16 16zM457.6 614.4c0-8-6.4-16-16-16h-281.6c-8 0-16 6.4-16 16s6.4 16 16 16h281.6c8 0 16-6.4 16-16zM457.6 475.2c0-9.6-6.4-16-16-16h-137.6c-8 0-16 6.4-16 16 0 8 6.4 16 16 16h137.6c8 0 16-6.4 16-16z" />
<glyph unicode="&#xe920;" glyph-name="quote-big" d="M320-32c-3.2 0-4.8 0-8 1.6-8 3.2-12.8 11.2-12.8 19.2v148.8h-278.4c-11.2 1.6-20.8 11.2-20.8 22.4v683.2c0 11.2 9.6 20.8 20.8 20.8h980.8c12.8 0 22.4-9.6 22.4-20.8v-683.2c0-11.2-9.6-20.8-20.8-20.8h-504l-164.8-164.8c-3.2-4.8-9.6-6.4-14.4-6.4zM43.2 180.8h276.8c11.2 0 20.8-9.6 20.8-20.8v-118.4l134.4 134.4c4.8 4.8 9.6 6.4 14.4 6.4h491.2v640h-937.6v-641.6zM336 387.2v118.4c0 38.4 9.6 60.8 36.8 84.8l80 73.6 38.4-30.4-57.6-76.8c-8-11.2-9.6-16-9.6-28.8v-3.2h44.8v-136h-132.8zM532.8 387.2v118.4c0 38.4 9.6 60.8 36.8 84.8l78.4 73.6 40-30.4-59.2-76.8c-8-11.2-11.2-16-11.2-28.8v-3.2h44.8v-136h-129.6z" />
<glyph unicode="&#xe921;" glyph-name="registration" d="M846.4 849.6c9.6 0 19.2-3.2 25.6-11.2 6.4-6.4 11.2-16 11.2-25.6v-840c0-9.6-3.2-19.2-11.2-25.6-6.4-6.4-16-11.2-25.6-11.2h-657.6c-9.6 0-19.2 4.8-25.6 11.2s-11.2 16-11.2 25.6v841.6c0 9.6 3.2 17.6 11.2 25.6 6.4 6.4 16 11.2 25.6 11.2h147.2v35.2c0 9.6 3.2 17.6 9.6 24s16 9.6 25.6 9.6h126.4v22.4c0 4.8 3.2 9.6 6.4 12.8s8 4.8 12.8 4.8 9.6-1.6 12.8-4.8c3.2-3.2 6.4-8 6.4-12.8v-20.8h126.4c9.6 0 17.6-1.6 25.6-9.6 6.4-6.4 9.6-14.4 9.6-24v-36.8h148.8zM846.4 108.8v702.4h-148.8v-33.6c0-9.6-3.2-19.2-9.6-25.6s-14.4-11.2-25.6-11.2h-291.2c-9.6 0-17.6 3.2-25.6 11.2-6.4 6.4-9.6 16-9.6 25.6v33.6h-148.8v-840h523.2l136 137.6zM267.2 489.6c-3.2 3.2-4.8 8-4.8 12.8s1.6 8 4.8 11.2c3.2 3.2 8 3.2 12.8 3.2h475.2c4.8 0 9.6 0 12.8-3.2s4.8-6.4 4.8-11.2c0-4.8-1.6-9.6-4.8-14.4-3.2-3.2-8-6.4-12.8-6.4h-475.2c-4.8 1.6-9.6 4.8-12.8 8zM280 372.8c-4.8 0-9.6 3.2-12.8 6.4s-4.8 8-4.8 12.8c0 4.8 1.6 8 4.8 11.2s8 3.2 12.8 3.2h364.8c4.8 0 9.6 0 12.8-3.2s4.8-6.4 4.8-12.8c0-4.8-1.6-9.6-4.8-12.8s-8-6.4-12.8-6.4h-364.8zM755.2 299.2c4.8 0 9.6 0 12.8-3.2s4.8-6.4 4.8-12.8-1.6-9.6-4.8-12.8c-3.2-3.2-8-6.4-12.8-6.4h-475.2c-4.8 0-9.6 3.2-12.8 6.4s-4.8 8-4.8 12.8c0 4.8 1.6 8 4.8 11.2s8 4.8 12.8 4.8h475.2zM371.2 884.8v-108.8h292.8v108.8h-292.8zM846.4-28.8v86.4l-84.8-86.4h84.8z" />
<glyph unicode="&#xe922;" glyph-name="rsvp-big" d="M400 265.6c-6.4 0-12.8 1.6-17.6 6.4l-107.2 107.2c-9.6 9.6-9.6 24 0 33.6s24 9.6 33.6 0l91.2-91.2 307.2 286.4c9.6 9.6 25.6 8 33.6-1.6 9.6-9.6 8-25.6-1.6-33.6l-323.2-300.8c-3.2-4.8-9.6-6.4-16-6.4zM508.8-73.6c-284.8 0-515.2 230.4-515.2 513.6s230.4 515.2 515.2 515.2 513.6-230.4 513.6-513.6-230.4-515.2-513.6-515.2zM508.8 918.4c-264 0-478.4-214.4-478.4-478.4s214.4-478.4 478.4-478.4 478.4 214.4 478.4 478.4c-1.6 264-216 478.4-478.4 478.4z" />
<glyph unicode="&#xe923;" glyph-name="share-small" d="M862.4 209.6c-38.4 0-73.6-16-99.2-41.6l-480 244.8c4.8 12.8 6.4 27.2 6.4 41.6 0 9.6-1.6 19.2-3.2 28.8l480 243.2c24-24 59.2-40 96-40 75.2 0 137.6 60.8 137.6 137.6 0 75.2-60.8 137.6-137.6 137.6-75.2 0-137.6-60.8-137.6-137.6 0-9.6 1.6-17.6 3.2-27.2l-480-243.2c-24 24-57.6 38.4-94.4 38.4-75.2 0-137.6-60.8-137.6-137.6 0-75.2 60.8-137.6 137.6-137.6 32 0 60.8 11.2 84.8 28.8l489.6-249.6c-1.6-8-1.6-16-1.6-24 0-75.2 60.8-137.6 137.6-137.6 75.2 0 137.6 60.8 137.6 137.6-1.6 76.8-64 137.6-139.2 137.6z" />
<glyph unicode="&#xe924;" glyph-name="sitebuilder" d="M920 864h-816c-40 0-72-32-72-72v-680c0-40 32-72 72-72h817.6c40 0 72 32 72 72v680c-1.6 40-33.6 72-73.6 72zM104 827.2h817.6c19.2 0 33.6-14.4 33.6-33.6v-100.8h-886.4v100.8c0 17.6 16 33.6 35.2 33.6zM920 78.4h-816c-19.2 0-33.6 14.4-33.6 33.6v542.4h884.8v-542.4c0-19.2-16-33.6-35.2-33.6zM792 523.2h-217.6c-16 0-30.4-12.8-30.4-30.4v-254.4c0-16 12.8-30.4 30.4-30.4h217.6c16 0 30.4 12.8 30.4 30.4v254.4c-1.6 17.6-14.4 30.4-30.4 30.4zM784 246.4h-201.6v240h201.6v-240zM464 520h-256c-9.6 0-19.2-8-19.2-19.2 0-9.6 8-19.2 19.2-19.2h256c9.6 0 19.2 8 19.2 19.2 0 9.6-9.6 19.2-19.2 19.2zM464 385.6h-256c-9.6 0-19.2-8-19.2-19.2s8-19.2 19.2-19.2h256c9.6 0 19.2 8 19.2 19.2s-9.6 19.2-19.2 19.2zM464 248h-256c-9.6 0-19.2-8-19.2-19.2s8-19.2 19.2-19.2h256c9.6 0 19.2 8 19.2 19.2s-9.6 19.2-19.2 19.2zM176 758.4c0-19.44-15.76-35.2-35.2-35.2s-35.2 15.76-35.2 35.2c0 19.44 15.76 35.2 35.2 35.2s35.2-15.76 35.2-35.2zM278.4 758.4c0-19.44-15.76-35.2-35.2-35.2s-35.2 15.76-35.2 35.2c0 19.44 15.76 35.2 35.2 35.2s35.2-15.76 35.2-35.2zM382.4 758.4c0-19.44-15.76-35.2-35.2-35.2s-35.2 15.76-35.2 35.2c0 19.44 15.76 35.2 35.2 35.2s35.2-15.76 35.2-35.2z" />
<glyph unicode="&#xe925;" glyph-name="soccer-big" d="M512 960c-281.6 0-512-230.4-512-512s230.4-512 512-512 512 230.4 512 512-230.4 512-512 512zM923.2 208l-184-43.2-70.4 78.4 76.8 235.2 120 64 121.6-140.8c-8-70.4-30.4-136-64-193.6zM286.4 164.8l-185.6 43.2c-33.6 57.6-56 123.2-62.4 192l123.2 142.4 116.8-57.6 78.4-241.6-70.4-78.4zM139.2 571.2l-102.4-118.4c1.6 102.4 33.6 195.2 89.6 272l12.8-153.6zM390.4 257.6l-75.2 235.2 196.8 144 198.4-145.6-75.2-235.2h-244.8zM886.4 571.2l12.8 153.6c54.4-76.8 86.4-169.6 88-270.4l-100.8 116.8zM867.2 764.8l-16-188.8-112-60.8-208 152v144l171.2 73.6c62.4-27.2 120-68.8 164.8-120zM652.8 902.4l-140.8-59.2-140.8 59.2c44.8 14.4 92.8 22.4 140.8 22.4 49.6 0 96-8 140.8-22.4zM323.2 884.8l171.2-73.6v-144l-203.2-148.8-116.8 57.6-16 188.8c44.8 51.2 100.8 92.8 164.8 120zM129.6 164.8l152-35.2 80-132.8c-94.4 30.4-174.4 89.6-232 168zM411.2-17.6l-96 160 70.4 78.4h256l70.4-78.4-96-160c-33.6-8-67.2-11.2-102.4-11.2-36.8 0-70.4 4.8-102.4 11.2zM664-3.2l80 132.8 150.4 35.2c-57.6-76.8-137.6-136-230.4-168z" />
<glyph unicode="&#xe926;" glyph-name="team" d="M976 456l-147.2 480c-1.6 4.8-4.8 8-8 11.2-4.8 1.6-9.6 3.2-14.4 1.6l-347.2-104-32 102.4c-1.6 4.8-4.8 8-8 11.2-3.2 1.6-8 1.6-12.8 1.6l-284.8-84.8c-4.8-1.6-8-4.8-9.6-9.6-3.2-3.2-3.2-8-1.6-12.8l147.2-480c3.2-9.6 12.8-14.4 22.4-11.2l104 30.4 32-102.4c1.6-4.8 4.8-8 8-11.2 3.2-1.6 4.8-1.6 8-1.6 1.6 0 3.2 0 4.8 0l528 156.8c9.6 3.2 14.4 12.8 11.2 22.4zM148.8 846.4l249.6 73.6 32-102.4 104-342.4-248-75.2-137.6 446.4zM446.4 316.8c1.6 56 83.2 112 118.4 129.6 0 0 1.6 1.6 1.6 1.6 1.6 0 1.6 1.6 1.6 1.6 1.6 1.6 1.6 1.6 1.6 3.2s1.6 1.6 1.6 3.2c0 1.6 0 1.6 1.6 3.2 0 1.6 0 1.6 0 3.2s0 3.2 0 3.2c0 0 0 1.6 0 1.6l-102.4 344 331.2 97.6 136-446.4-491.2-145.6zM51.2 878.4c-3.2 9.6-12.8 14.4-22.4 12.8-9.6-3.2-14.4-12.8-12.8-22.4l281.6-920c1.6-8 9.6-12.8 17.6-12.8 1.6 0 3.2 0 4.8 0 9.6 3.2 14.4 12.8 11.2 22.4l-280 920z" />
<glyph unicode="&#xe927;" glyph-name="texting-big" d="M835.2 884.8v-878.4c0-40-32-73.6-73.6-73.6h-512c-40 0-73.6 32-73.6 73.6v878.4c0 40 32 73.6 73.6 73.6h512c40 0 73.6-33.6 73.6-73.6zM798.4 884.8c0 19.2-16 36.8-36.8 36.8h-512c-19.2 0-36.8-16-36.8-36.8v-73.6h585.6v73.6zM798.4 774.4h-585.6v-657.6h585.6v657.6zM798.4 80h-585.6v-73.6c0-19.2 16-36.8 36.8-36.8h512c19.2 0 36.8 16 36.8 36.8v73.6zM560 865.6c0-9.6-8-17.6-17.6-17.6h-73.6c-9.6 0-19.2 8-19.2 17.6s8 19.2 19.2 19.2h73.6c9.6 0 17.6-8 17.6-19.2zM468.8 25.6c0 19.2 16 36.8 36.8 36.8 19.2 0 36.8-16 36.8-36.8s-16-36.8-36.8-36.8c-20.8 0-36.8 16-36.8 36.8zM699.2 590.4h-384c-9.6 0-17.6 8-17.6 17.6s8 17.6 17.6 17.6h384c9.6 0 17.6-8 17.6-17.6s-6.4-17.6-17.6-17.6zM699.2 484.8h-384c-9.6 0-17.6 8-17.6 17.6s8 17.6 17.6 17.6h384c9.6 0 17.6-8 17.6-17.6s-6.4-17.6-17.6-17.6zM502.4 380.8h-187.2c-9.6 0-17.6 8-17.6 17.6s8 17.6 17.6 17.6h187.2c9.6 0 17.6-8 17.6-17.6s-8-17.6-17.6-17.6z" />
<glyph unicode="&#xe928;" glyph-name="tourney" d="M531.2 376v-403.2h198.4c9.6 0 19.2-6.4 19.2-19.2s-8-17.6-20.8-17.6h-425.6c-9.6 0-19.2 6.4-19.2 19.2 0 9.6 6.4 19.2 19.2 19.2h190.4v401.6c-83.2 4.8-160 46.4-209.6 108.8-267.2 4.8-283.2 187.2-283.2 422.4 0 9.6 6.4 19.2 19.2 19.2h200v16c0 11.2 6.4 19.2 19.2 19.2h548.8c9.6 0 19.2-6.4 19.2-19.2v-19.2h200c11.2 0 19.2-9.6 19.2-19.2 0-235.2-19.2-416-283.2-419.2-52.8-62.4-128-104-211.2-108.8zM257.6 523.2c-25.6 41.6-40 92.8-40 147.2v217.6h-182.4c1.6-188.8 9.6-358.4 222.4-364.8zM768 667.2v256h-512v-256c0-142.4 113.6-256 256-256s256 115.2 256 256zM766.4 523.2c214.4 6.4 220.8 177.6 220.8 364.8h-184v-219.2c0-52.8-14.4-104-36.8-145.6zM516.8 843.2l36.8-108.8h118.4l-96-67.2 35.2-108.8-96 62.4-96-62.4 35.2 107.2-96 70.4h121.6l36.8 107.2z" />
<glyph unicode="&#xe929;" glyph-name="verify" d="M849.6-32h-675.2c-78.4 0-142.4 64-142.4 142.4v675.2c0 78.4 64 142.4 142.4 142.4h673.6c80 0 144-64 144-142.4v-673.6c0-80-64-144-142.4-144zM174.4 886.4c-56 0-102.4-44.8-102.4-102.4v-673.6c0-56 44.8-102.4 102.4-102.4h673.6c56 0 102.4 46.4 102.4 102.4v675.2c0 56-46.4 102.4-102.4 102.4h-673.6zM425.6 270.4c-4.8 0-11.2 1.6-14.4 6.4l-192 190.4c-8 8-8 20.8 0 28.8s20.8 8 28.8 0l176-176 350.4 350.4c8 8 20.8 8 28.8 0s8-20.8 0-28.8l-363.2-366.4c-4.8-3.2-9.6-4.8-14.4-4.8z" />
<glyph unicode="&#xe92a;" glyph-name="volleyball-big" d="M512 960c-281.6 0-512-230.4-512-512s230.4-512 512-512c281.6 0 512 230.4 512 512s-230.4 512-512 512zM412.8-17.6c-68.8 14.4-132.8 44.8-187.2 86.4 3.2 0 4.8 0 8 0 92.8 0 182.4 25.6 262.4 73.6 84.8 51.2 152 124.8 195.2 214.4 38.4-25.6 72-56 100.8-91.2-38.4-92.8-104-166.4-188.8-217.6-59.2-35.2-123.2-57.6-190.4-65.6zM526.4 464c-17.6 49.6-25.6 99.2-27.2 150.4 91.2 9.6 184-8 265.6-51.2 92.8-48 166.4-124.8 211.2-219.2-14.4-65.6-43.2-126.4-81.6-177.6-65.6 152-204.8 265.6-368 297.6zM513.6 444.8v0 3.2h1.6l-1.6-3.2zM510.4 448v0 0 0zM780.8 595.2c-88 44.8-184 64-281.6 54.4 3.2 46.4 12.8 91.2 28.8 134.4 96 11.2 190.4-4.8 276.8-49.6 60.8-32 112-73.6 155.2-128 17.6-49.6 27.2-104 27.2-160 0-16 0-30.4-1.6-44.8-48 83.2-118.4 148.8-204.8 193.6zM908.8 710.4c-27.2 20.8-56 40-86.4 56-86.4 44.8-182.4 64-278.4 56 16 33.6 35.2 64 57.6 92.8 128-24 236.8-99.2 307.2-204.8zM561.6 921.6c-64-88-99.2-193.6-99.2-300.8 0-57.6 9.6-113.6 28.8-169.6-35.2-38.4-75.2-70.4-118.4-94.4-52.8 78.4-80 169.6-80 264 0 105.6 33.6 204.8 97.6 288 38.4 9.6 78.4 16 120 16 17.6-1.6 35.2-1.6 51.2-3.2zM334.4 889.6c-49.6-81.6-76.8-172.8-76.8-270.4 0-100.8 28.8-196.8 84.8-280-41.6-19.2-84.8-32-131.2-40-57.6 81.6-89.6 176-89.6 276.8 0 67.2 14.4 132.8 41.6 195.2 48 51.2 105.6 91.2 171.2 118.4zM96 680c-6.4-33.6-9.6-67.2-9.6-102.4 0-100.8 28.8-198.4 84.8-281.6-9.6 0-19.2-1.6-30.4-1.6-25.6 0-52.8 3.2-81.6 8-14.4 46.4-22.4 96-22.4 145.6 0 83.2 20.8 163.2 59.2 232zM73.6 262.4c22.4-3.2 44.8-4.8 67.2-4.8 145.6 0 283.2 62.4 380.8 169.6 49.6-9.6 97.6-28.8 140.8-52.8-40-84.8-102.4-153.6-184-203.2-89.6-54.4-192-76.8-297.6-65.6-44.8 44.8-81.6 97.6-107.2 156.8zM528-27.2c32 11.2 64 25.6 92.8 44.8 86.4 51.2 153.6 124.8 196.8 214.4 20.8-30.4 38.4-62.4 51.2-97.6-83.2-96-204.8-156.8-340.8-161.6z" />
<glyph unicode="&#xe92b;" glyph-name="website-big" d="M768 185.6h-694.4c-41.6 0-73.6 32-73.6 72v548.8c0 40 32 73.6 73.6 73.6h694.4c40 0 73.6-33.6 73.6-73.6v-548.8c0-40-33.6-72-73.6-72zM36.8 697.6h768v108.8c0 19.2-16 36.8-36.8 36.8h-694.4c-20.8 0-36.8-16-36.8-36.8v-108.8zM73.6 220.8h694.4c20.8 0 36.8 16 36.8 36.8v403.2h-768v-403.2c0-19.2 16-36.8 36.8-36.8zM147.2 769.6c0-20.8-16-36.8-36.8-36.8-19.2 0-36.8 16-36.8 36.8s16 36.8 36.8 36.8c19.2 0 36.8-16 36.8-36.8zM256 769.6c0-20.8-16-36.8-36.8-36.8s-36.8 16-36.8 36.8c0 20.8 16 36.8 36.8 36.8s36.8-16 36.8-36.8zM1024 624v-548.8c0-40-32-73.6-73.6-73.6h-694.4c-40 0-73.6 33.6-73.6 73.6v54.4c0 11.2 8 19.2 17.6 19.2s19.2-8 19.2-19.2v-54.4c0-20.8 16-36.8 36.8-36.8h694.4c20.8 0 36.8 16 36.8 36.8v401.6h-91.2c-9.6 0-19.2 8-19.2 19.2s8 17.6 19.2 17.6h91.2v110.4c0 20.8-16 36.8-36.8 36.8h-54.4c-9.6 0-19.2 8-19.2 19.2 0 9.6 8 17.6 19.2 17.6h54.4c41.6 0 73.6-33.6 73.6-73.6zM364.8 769.6c0-20.8-16-36.8-36.8-36.8s-36.8 16-36.8 36.8c0 20.8 16 36.8 36.8 36.8s36.8-16 36.8-36.8z" />
<glyph unicode="&#xe92c;" glyph-name="chat-big" d="M1024 408c0 51.2-36.8 94.4-84.8 105.6v22.4c0 59.2-48 107.2-107.2 107.2-12.8 166.4-150.4 297.6-320 297.6s-307.2-131.2-320-297.6c-59.2 0-107.2-48-107.2-107.2v-22.4c-48-11.2-84.8-54.4-84.8-105.6s36.8-94.4 84.8-105.6v-22.4c0-59.2 48-107.2 107.2-107.2h84.8c12.8 0 22.4 9.6 22.4 22.4v425.6c0 12.8-9.6 22.4-22.4 22.4h-40c12.8 140.8 131.2 252.8 275.2 252.8s262.4-112 273.6-252.8h-40c-12.8 0-22.4-9.6-22.4-22.4v-425.6c0-12.8 9.6-22.4 22.4-22.4h83.2v-19.2c0-76.8-68.8-105.6-126.4-105.6h-65.6c-9.6 36.8-43.2 64-83.2 64-48 0-86.4-38.4-86.4-86.4s38.4-86.4 86.4-86.4c40 0 73.6 27.2 83.2 64h67.2c102.4 0 171.2 60.8 171.2 150.4v28.8c36.8 17.6 64 54.4 64 97.6v22.4c48 11.2 84.8 54.4 84.8 105.6zM44.8 408c0 27.2 16 49.6 40 57.6v-116.8c-22.4 9.6-40 33.6-40 59.2zM256 217.6h-62.4c-35.2 0-62.4 28.8-62.4 62.4v256c0 35.2 28.8 62.4 62.4 62.4h62.4v-380.8zM555.2-16c-22.4 0-41.6 19.2-41.6 41.6s19.2 41.6 41.6 41.6 41.6-19.2 41.6-41.6-19.2-41.6-41.6-41.6zM892.8 280c0-35.2-28.8-62.4-62.4-62.4h-62.4v380.8h62.4c35.2 0 62.4-28.8 62.4-62.4v-256zM939.2 350.4v116.8c24-9.6 40-32 40-57.6s-17.6-51.2-40-59.2z" />
<glyph unicode="&#xe92d;" glyph-name="email-big-alternate" d="M1024 470.4c0 1.6 0 4.8-1.6 6.4 0 1.6 0 1.6-1.6 3.2 0 0 0 1.6 0 1.6-1.6 1.6-3.2 3.2-4.8 4.8 0 0 0 0 0 1.6v0c0 0 0 0 0 0l-160 110.4v339.2c-1.6 12.8-12.8 22.4-24 22.4h-640c-12.8 0-22.4-9.6-22.4-22.4v-339.2l-160-110.4c0 0 0 0 0 0v0c0 0 0 0 0-1.6-1.6-1.6-3.2-3.2-4.8-4.8 0 0 0-1.6 0-1.6 0-1.6-1.6-1.6-1.6-3.2-1.6-1.6-3.2-3.2-3.2-6.4 0 0 0-1.6 0-1.6v-446.4c0-48 38.4-86.4 86.4-86.4h851.2c48 0 86.4 38.4 86.4 86.4v446.4c0 1.6 0 1.6 0 1.6zM961.6 468.8l-108.8-72v147.2l108.8-75.2zM169.6 396.8l-108.8 72 108.8 73.6v-145.6zM937.6-19.2h-851.2c-22.4 0-41.6 19.2-41.6 41.6v404.8l220.8-147.2c3.2-3.2 8-3.2 12.8-3.2 8 0 14.4 3.2 19.2 9.6 6.4 9.6 4.8 24-6.4 30.4l-76.8 51.2v547.2h593.6v-547.2l-75.2-49.6c-9.6-6.4-12.8-20.8-6.4-30.4 4.8-6.4 11.2-9.6 19.2-9.6 4.8 0 8 1.6 12.8 3.2l220.8 147.2v-404.8c0-24-19.2-43.2-41.6-43.2zM675.2 273.6c-3.2 3.2-9.6 4.8-14.4 4.8h-297.6c-4.8 0-9.6-1.6-14.4-4.8l-212.8-169.6c-9.6-8-11.2-22.4-3.2-32s22.4-11.2 32-3.2l206.4 164.8h281.6l206.4-164.8c4.8-3.2 9.6-4.8 14.4-4.8 6.4 0 12.8 3.2 17.6 8 8 9.6 6.4 24-3.2 32l-212.8 169.6zM320 787.2h84.8c12.8 0 22.4 9.6 22.4 22.4s-9.6 22.4-22.4 22.4h-84.8c-12.8 0-22.4-9.6-22.4-22.4s11.2-22.4 22.4-22.4zM382.4 681.6c0-12.8 9.6-22.4 22.4-22.4h299.2c12.8 0 22.4 9.6 22.4 22.4s-9.6 22.4-22.4 22.4h-299.2c-11.2 0-22.4-9.6-22.4-22.4zM320 532.8h384c12.8 0 22.4 9.6 22.4 22.4s-9.6 22.4-22.4 22.4h-384c-12.8 0-22.4-9.6-22.4-22.4s11.2-22.4 22.4-22.4zM320 404.8h384c12.8 0 22.4 9.6 22.4 22.4s-9.6 22.4-22.4 22.4h-384c-12.8 0-22.4-9.6-22.4-22.4s11.2-22.4 22.4-22.4z" />
<glyph unicode="&#xe92e;" glyph-name="edit-small" d="M1014.4 777.6l-172.8 172.8c-12.8 12.8-33.6 12.8-46.4 0l-112-112c0 0 0 0 0 0s0 0 0 0l-544-542.4c-3.2-3.2-4.8-6.4-6.4-11.2l-129.6-304c-4.8-12.8-3.2-27.2 6.4-36.8 6.4-4.8 14.4-8 24-8 4.8 0 9.6 1.6 12.8 3.2l302.4 129.6c0 0 0 0 0 0v0c3.2 1.6 8 4.8 11.2 6.4l542.4 542.4c0 0 0 0 0 0s0 0 0 0l112 112c12.8 12.8 12.8 35.2 0 48zM345.6 161.6l-120 120 468.8 468.8 120-120-468.8-468.8zM174.4 214.4l104-104-182.4-78.4 78.4 182.4zM878.4 688l-126.4 126.4 65.6 65.6 126.4-126.4-65.6-65.6z" />
<glyph unicode="&#xe92f;" glyph-name="edit-big" d="M830.4-64h-808c-12.8 0-22.4 9.6-22.4 22.4v896c0 12.8 9.6 22.4 22.4 22.4h595.2c12.8 0 22.4-9.6 22.4-22.4s-9.6-22.4-22.4-22.4h-571.2v-848h761.6v486.4c0 12.8 9.6 22.4 22.4 22.4s22.4-9.6 22.4-22.4v-510.4c1.6-14.4-9.6-24-22.4-24zM1017.6 832l-120 120c-9.6 9.6-24 9.6-32 0l-78.4-78.4c0 0 0 0 0 0s0 0 0 0l-376-374.4c-1.6-1.6-3.2-4.8-4.8-8l-89.6-211.2c-3.2-8-1.6-19.2 4.8-25.6 4.8-4.8 9.6-6.4 16-6.4 3.2 0 6.4 0 9.6 1.6l209.6 89.6c0 0 0 0 0 0v0c3.2 1.6 4.8 3.2 8 4.8l376 376c0 0 0 0 0 0s0 0 0 0l78.4 78.4c6.4 11.2 6.4 25.6-1.6 33.6zM547.2 393.6l-88 88 344 344 88-88-344-344zM435.2 441.6l72-72-126.4-54.4 54.4 126.4zM923.2 771.2l-88 88 44.8 44.8 88-88-44.8-44.8z" />
<glyph unicode="&#xe930;" glyph-name="quote-small" d="M0 52.8v345.6c0 112 30.4 176 107.2 248l233.6 216 112-89.6-169.6-227.2c-25.6-32-30.4-48-30.4-84.8v-9.6h132.8v-398.4h-385.6zM571.2 52.8v345.6c0 112 30.4 176 107.2 248l230.4 216 115.2-89.6-169.6-227.2c-25.6-32-32-48-32-84.8v-9.6h132.8v-398.4h-384z" />
<glyph unicode="&#xe931;" glyph-name="file-pdf-big" d="M913.6 691.2c-1.6 1.6-1.6 4.8-3.2 6.4 0 0 0 0 0 0l-260.8 257.6c0 0-1.6 0-1.6 1.6-1.6 1.6-3.2 1.6-4.8 3.2-1.6 0-3.2 0-6.4 0h-473.6c-11.2 0-19.2-8-19.2-17.6v-987.2c0-9.6 8-17.6 17.6-17.6h734.4c9.6 0 17.6 8 17.6 17.6v729.6c1.6 1.6 0 4.8 0 6.4zM656 897.6l196.8-195.2h-196.8v195.2zM180.8-27.2v950.4h438.4v-240c0-9.6 8-17.6 17.6-17.6h241.6v-694.4h-697.6zM350.4 110.4c-3.2 0-4.8 0-8 0-22.4 3.2-41.6 17.6-49.6 36.8s-3.2 41.6 11.2 59.2c25.6 32 67.2 70.4 121.6 107.2 6.4 43.2 8 88 3.2 129.6-32 32-62.4 70.4-91.2 116.8v0c-12.8 22.4-12.8 48 0 68.8 12.8 19.2 35.2 32 56 28.8 19.2-1.6 35.2-14.4 43.2-35.2 14.4-40 28.8-96 35.2-158.4 35.2-33.6 72-57.6 107.2-76.8 51.2 16 107.2 24 166.4 22.4 25.6-1.6 46.4-14.4 56-35.2s8-46.4-4.8-64c-11.2-16-32-24-52.8-22.4-43.2 4.8-105.6 19.2-169.6 51.2-40-14.4-76.8-32-108.8-51.2-11.2-52.8-30.4-104-64-150.4-12.8-16-32-27.2-51.2-27.2zM409.6 248c-30.4-24-54.4-48-70.4-68.8-3.2-4.8-6.4-9.6-4.8-16 1.6-4.8 8-8 14.4-9.6 4.8 0 12.8 0 19.2 9.6 17.6 27.2 30.4 56 41.6 84.8zM644.8 358.4c40-14.4 76.8-22.4 105.6-25.6 8-1.6 11.2 1.6 11.2 3.2 3.2 4.8 3.2 12.8 0 19.2s-9.6 9.6-19.2 9.6c-33.6 3.2-65.6 0-97.6-6.4zM475.2 403.2c0-19.2 0-40-1.6-59.2 16 8 33.6 17.6 51.2 24-16 11.2-32 22.4-49.6 35.2zM388.8 616c-3.2 0-9.6-3.2-12.8-8-4.8-6.4-3.2-14.4 1.6-22.4v0c12.8-22.4 27.2-41.6 41.6-60.8-6.4 33.6-14.4 62.4-24 84.8-1.6 1.6-3.2 4.8-6.4 6.4 0 0 0 0 0 0z" />
<glyph unicode="&#xe932;" glyph-name="file-excel-big" d="M913.6 691.2c-1.6 1.6-1.6 4.8-3.2 6.4 0 0 0 0 0 0l-260.8 257.6c0 0-1.6 0-1.6 1.6-1.6 1.6-3.2 1.6-4.8 3.2-1.6 0-3.2 0-6.4 0h-473.6c-11.2 0-19.2-8-19.2-17.6v-987.2c0-9.6 8-17.6 17.6-17.6h734.4c9.6 0 17.6 8 17.6 17.6v729.6c1.6 1.6 0 4.8 0 6.4zM656 897.6l196.8-195.2h-196.8v195.2zM180.8-27.2v950.4h438.4v-240c0-9.6 8-17.6 17.6-17.6h241.6v-694.4h-697.6zM686.4 548.8h-102.4l-72-107.2-73.6 107.2h-102.4l123.2-184-139.2-204.8h200v70.4h-46.4l38.4 56 84.8-126.4h105.6l-139.2 204.8z" />
<glyph unicode="&#xe933;" glyph-name="file-doc-big" d="M913.6 691.2c-1.6 1.6-1.6 4.8-3.2 6.4 0 0 0 0 0 0l-260.8 257.6c0 0-1.6 0-1.6 1.6-1.6 1.6-3.2 1.6-4.8 3.2-1.6 0-3.2 0-6.4 0h-473.6c-11.2 0-19.2-8-19.2-17.6v-987.2c0-9.6 8-17.6 17.6-17.6h734.4c9.6 0 17.6 8 17.6 17.6v729.6c1.6 1.6 0 4.8 0 6.4zM656 897.6l196.8-195.2h-196.8v195.2zM180.8-27.2v950.4h438.4v-240c0-9.6 8-17.6 17.6-17.6h241.6v-694.4h-697.6zM624 475.2h33.6l-38.4-172.8-51.2 243.2h-81.6l-59.2-243.2-43.2 243.2h-84.8l86.4-390.4h83.2l57.6 230.4 52.8-230.4h76.8l97.6 390.4h-129.6z" />
<glyph unicode="&#xe934;" glyph-name="saved-items-big" d="M1003.2 960h-854.4c-11.2 0-20.8-9.6-20.8-20.8v-148.8h-107.2c-11.2-1.6-20.8-11.2-20.8-22.4v-811.2c0-11.2 9.6-20.8 20.8-20.8h811.2c11.2 0 20.8 9.6 20.8 20.8v107.2h148.8c11.2 0 20.8 9.6 20.8 20.8v854.4c1.6 11.2-8 20.8-19.2 20.8zM811.2-20.8h-768v768h84.8v-660.8c0-12.8 9.6-22.4 20.8-22.4h660.8v-84.8zM980.8 107.2h-809.6v809.6h811.2v-809.6zM768 539.2h-142.4v142.4c0 16-12.8 30.4-30.4 30.4s-30.4-12.8-30.4-30.4v-142.4h-142.4c-16 0-30.4-12.8-30.4-30.4 0-16 12.8-30.4 30.4-30.4h142.4v-142.4c0-16 12.8-30.4 30.4-30.4s30.4 12.8 30.4 30.4v142.4h142.4c16 0 30.4 12.8 30.4 30.4s-14.4 30.4-30.4 30.4z" />
<glyph unicode="&#xe935;" glyph-name="search-big" d="M1012.8 0l-360 360c51.2 64 83.2 144 83.2 232 0 203.2-164.8 368-368 368s-368-164.8-368-368c0-203.2 164.8-368 368-368 88 0 168 30.4 232 83.2l360-360c8-8 16-11.2 25.6-11.2s19.2 3.2 25.6 11.2c16 14.4 16 38.4 1.6 52.8zM75.2 592c0 161.6 131.2 292.8 292.8 292.8s292.8-131.2 292.8-292.8c0-161.6-131.2-292.8-292.8-292.8s-292.8 131.2-292.8 292.8z" />
<glyph unicode="&#xe936;" glyph-name="checkmark-big" d="M304 96c-14.4 0-28.8 4.8-40 16l-248 238.4c-22.4 20.8-22.4 54.4 0 76.8 22.4 20.8 57.6 20.8 80 0l209.6-203.2 624 561.6c22.4 20.8 57.6 19.2 78.4-3.2s19.2-56-3.2-76.8l-662.4-595.2c-11.2-9.6-24-14.4-38.4-14.4z" />
<glyph unicode="&#xe937;" glyph-name="checkmark-small" d="M313.6 96c-19.2 0-38.4 6.4-54.4 20.8l-236.8 224c-30.4 28.8-30.4 73.6 0 102.4s78.4 28.8 107.2 0l184-174.4 580.8 512c30.4 27.2 78.4 25.6 107.2-3.2s27.2-75.2-3.2-102.4l-633.6-560c-14.4-12.8-33.6-19.2-51.2-19.2z" />
<glyph unicode="&#xea82;" glyph-name="share2" d="M864 256c-45.16 0-85.92-18.738-115.012-48.83l-431.004 215.502c1.314 8.252 2.016 16.706 2.016 25.328s-0.702 17.076-2.016 25.326l431.004 215.502c29.092-30.090 69.852-48.828 115.012-48.828 88.366 0 160 71.634 160 160s-71.634 160-160 160-160-71.634-160-160c0-8.622 0.704-17.076 2.016-25.326l-431.004-215.504c-29.092 30.090-69.852 48.83-115.012 48.83-88.366 0-160-71.636-160-160 0-88.368 71.634-160 160-160 45.16 0 85.92 18.738 115.012 48.828l431.004-215.502c-1.312-8.25-2.016-16.704-2.016-25.326 0-88.368 71.634-160 160-160s160 71.632 160 160c0 88.364-71.634 160-160 160z" />
<glyph unicode="&#xea8b;" glyph-name="google-plus" d="M325.8 502.6v-111.8h184.8c-7.4-48-55.8-140.6-184.8-140.6-111.2 0-202 92.2-202 205.8s90.8 205.8 202 205.8c63.4 0 105.6-27 129.8-50.2l88.4 85.2c-56.8 53-130.4 85.2-218.2 85.2-180.2-0.2-325.8-145.8-325.8-326s145.6-325.8 325.8-325.8c188 0 312.8 132.2 312.8 318.4 0 21.4-2.4 37.8-5.2 54h-307.6zM1024 512h-96v96h-96v-96h-96v-96h96v-96h96v96h96z" />
<glyph unicode="&#xea90;" glyph-name="facebook" d="M608 768h160v192h-160c-123.514 0-224-100.486-224-224v-96h-128v-192h128v-512h192v512h160l32 192h-192v96c0 17.346 14.654 32 32 32z" />
<glyph unicode="&#xea96;" glyph-name="twitter" d="M1024 733.6c-37.6-16.8-78.2-28-120.6-33 43.4 26 76.6 67.2 92.4 116.2-40.6-24-85.6-41.6-133.4-51-38.4 40.8-93 66.2-153.4 66.2-116 0-210-94-210-210 0-16.4 1.8-32.4 5.4-47.8-174.6 8.8-329.4 92.4-433 219.6-18-31-28.4-67.2-28.4-105.6 0-72.8 37-137.2 93.4-174.8-34.4 1-66.8 10.6-95.2 26.2 0-0.8 0-1.8 0-2.6 0-101.8 72.4-186.8 168.6-206-17.6-4.8-36.2-7.4-55.4-7.4-13.6 0-26.6 1.4-39.6 3.8 26.8-83.4 104.4-144.2 196.2-146-72-56.4-162.4-90-261-90-17 0-33.6 1-50.2 3 93.2-59.8 203.6-94.4 322.2-94.4 386.4 0 597.8 320.2 597.8 597.8 0 9.2-0.2 18.2-0.6 27.2 41 29.4 76.6 66.4 104.8 108.6z" />
<glyph unicode="&#xea9d;" glyph-name="youtube" d="M1013.8 652.8c0 0-10 70.6-40.8 101.6-39 40.8-82.6 41-102.6 43.4-143.2 10.4-358.2 10.4-358.2 10.4h-0.4c0 0-215 0-358.2-10.4-20-2.4-63.6-2.6-102.6-43.4-30.8-31-40.6-101.6-40.6-101.6s-10.2-82.8-10.2-165.8v-77.6c0-82.8 10.2-165.8 10.2-165.8s10-70.6 40.6-101.6c39-40.8 90.2-39.4 113-43.8 82-7.8 348.2-10.2 348.2-10.2s215.2 0.4 358.4 10.6c20 2.4 63.6 2.6 102.6 43.4 30.8 31 40.8 101.6 40.8 101.6s10.2 82.8 10.2 165.8v77.6c-0.2 82.8-10.4 165.8-10.4 165.8zM406.2 315.2v287.8l276.6-144.4-276.6-143.4z" />
<glyph unicode="&#xeaca;" glyph-name="linkedin2" d="M384 576h177.106v-90.782h2.532c24.64 44.194 84.958 90.782 174.842 90.782 186.946 0 221.52-116.376 221.52-267.734v-308.266h-184.61v273.278c0 65.184-1.334 149.026-96.028 149.026-96.148 0-110.82-70.986-110.82-144.292v-278.012h-184.542v576zM64 576h192v-576h-192v576zM256 736c0-53.019-42.981-96-96-96s-96 42.981-96 96c0 53.019 42.981 96 96 96s96-42.981 96-96z" />
</font>
</defs>
</svg>
